<?xml version="1.0" encoding="UTF-8" standalone="no"?>
<!DOCTYPE svg PUBLIC "-//W3C//DTD SVG 1.1//EN"
 "http://www.w3.org/Graphics/SVG/1.1/DTD/svg11.dtd">
<!-- Generated by graphviz version 10.0.1 (20240210.2158)
 -->
<!-- Pages: 1 -->
<svg width="297pt" height="595pt"
 viewBox="0.00 0.00 296.50 595.00" xmlns="http://www.w3.org/2000/svg" xmlns:xlink="http://www.w3.org/1999/xlink">
<g id="graph0" class="graph" transform="scale(1 1) rotate(0) translate(4 591)">
<polygon fill="white" stroke="none" points="-4,4 -4,-591 292.5,-591 292.5,4 -4,4"/>
<!-- 1374390043328 -->
<g id="node1" class="node">
<title>1374390043328</title>
<path fill="lightblue" stroke="lightblue" d="M102,-330.5C102,-330.5 159.25,-330.5 159.25,-330.5 165.25,-330.5 171.25,-336.5 171.25,-342.5 171.25,-342.5 171.25,-354.5 171.25,-354.5 171.25,-360.5 165.25,-366.5 159.25,-366.5 159.25,-366.5 102,-366.5 102,-366.5 96,-366.5 90,-360.5 90,-354.5 90,-354.5 90,-342.5 90,-342.5 90,-336.5 96,-330.5 102,-330.5"/>
<text text-anchor="middle" x="130.62" y="-343.7" font-family="Times,serif" font-size="14.00">command.o</text>
</g>
<!-- 1374390043456 -->
<g id="node2" class="node">
<title>1374390043456</title>
<path fill="lightblue" stroke="lightblue" d="M219.62,-385.5C219.62,-385.5 276.12,-385.5 276.12,-385.5 282.12,-385.5 288.12,-391.5 288.12,-397.5 288.12,-397.5 288.12,-409.5 288.12,-409.5 288.12,-415.5 282.12,-421.5 276.12,-421.5 276.12,-421.5 219.62,-421.5 219.62,-421.5 213.62,-421.5 207.62,-415.5 207.62,-409.5 207.62,-409.5 207.62,-397.5 207.62,-397.5 207.62,-391.5 213.62,-385.5 219.62,-385.5"/>
<text text-anchor="middle" x="247.88" y="-398.7" font-family="Times,serif" font-size="14.00">command.c</text>
</g>
<!-- 1374390043328&#45;&gt;1374390043456 -->
<g id="edge1" class="edge">
<title>1374390043328&#45;&gt;1374390043456</title>
<path fill="none" stroke="black" d="M170.32,-366.97C179.25,-371.23 188.87,-375.82 198.17,-380.26"/>
<polygon fill="black" stroke="black" points="196.58,-383.37 207.11,-384.52 199.59,-377.06 196.58,-383.37"/>
</g>
<!-- 1374390043520 -->
<g id="node3" class="node">
<title>1374390043520</title>
<path fill="lightblue" stroke="lightblue" d="M232.88,-330.5C232.88,-330.5 262.88,-330.5 262.88,-330.5 268.88,-330.5 274.88,-336.5 274.88,-342.5 274.88,-342.5 274.88,-354.5 274.88,-354.5 274.88,-360.5 268.88,-366.5 262.88,-366.5 262.88,-366.5 232.88,-366.5 232.88,-366.5 226.88,-366.5 220.88,-360.5 220.88,-354.5 220.88,-354.5 220.88,-342.5 220.88,-342.5 220.88,-336.5 226.88,-330.5 232.88,-330.5"/>
<text text-anchor="middle" x="247.88" y="-343.7" font-family="Times,serif" font-size="14.00">defs.h</text>
</g>
<!-- 1374390043328&#45;&gt;1374390043520 -->
<g id="edge2" class="edge">
<title>1374390043328&#45;&gt;1374390043520</title>
<path fill="none" stroke="black" d="M171.61,-348.5C183.8,-348.5 197.16,-348.5 209.19,-348.5"/>
<polygon fill="black" stroke="black" points="209.17,-352 219.17,-348.5 209.17,-345 209.17,-352"/>
</g>
<!-- 1374390043584 -->
<g id="node4" class="node">
<title>1374390043584</title>
<path fill="lightblue" stroke="lightblue" d="M219.25,-110.5C219.25,-110.5 276.5,-110.5 276.5,-110.5 282.5,-110.5 288.5,-116.5 288.5,-122.5 288.5,-122.5 288.5,-134.5 288.5,-134.5 288.5,-140.5 282.5,-146.5 276.5,-146.5 276.5,-146.5 219.25,-146.5 219.25,-146.5 213.25,-146.5 207.25,-140.5 207.25,-134.5 207.25,-134.5 207.25,-122.5 207.25,-122.5 207.25,-116.5 213.25,-110.5 219.25,-110.5"/>
<text text-anchor="middle" x="247.88" y="-123.7" font-family="Times,serif" font-size="14.00">command.h</text>
</g>
<!-- 1374390043328&#45;&gt;1374390043584 -->
<g id="edge3" class="edge">
<title>1374390043328&#45;&gt;1374390043584</title>
<path fill="none" stroke="black" d="M163.55,-330.21C166.46,-327.58 169.11,-324.67 171.25,-321.5 213.24,-259.29 165.79,-219.07 207.25,-156.5 207.54,-156.06 207.84,-155.63 208.15,-155.2"/>
<polygon fill="black" stroke="black" points="210.55,-157.76 214.69,-148.01 205.37,-153.05 210.55,-157.76"/>
</g>
<!-- 1374390044096 -->
<g id="node5" class="node">
<title>1374390044096</title>
<path fill="lightblue" stroke="lightblue" d="M232.88,-55.5C232.88,-55.5 262.88,-55.5 262.88,-55.5 268.88,-55.5 274.88,-61.5 274.88,-67.5 274.88,-67.5 274.88,-79.5 274.88,-79.5 274.88,-85.5 268.88,-91.5 262.88,-91.5 262.88,-91.5 232.88,-91.5 232.88,-91.5 226.88,-91.5 220.88,-85.5 220.88,-79.5 220.88,-79.5 220.88,-67.5 220.88,-67.5 220.88,-61.5 226.88,-55.5 232.88,-55.5"/>
<text text-anchor="middle" x="247.88" y="-68.7" font-family="Times,serif" font-size="14.00">files.c</text>
</g>
<!-- 1374390044160 -->
<g id="node6" class="node">
<title>1374390044160</title>
<path fill="lightblue" stroke="lightblue" d="M230.5,-220.5C230.5,-220.5 265.25,-220.5 265.25,-220.5 271.25,-220.5 277.25,-226.5 277.25,-232.5 277.25,-232.5 277.25,-244.5 277.25,-244.5 277.25,-250.5 271.25,-256.5 265.25,-256.5 265.25,-256.5 230.5,-256.5 230.5,-256.5 224.5,-256.5 218.5,-250.5 218.5,-244.5 218.5,-244.5 218.5,-232.5 218.5,-232.5 218.5,-226.5 224.5,-220.5 230.5,-220.5"/>
<text text-anchor="middle" x="247.88" y="-233.7" font-family="Times,serif" font-size="14.00">buffer.h</text>
</g>
<!-- 1374390044672 -->
<g id="node7" class="node">
<title>1374390044672</title>
<path fill="lightblue" stroke="lightblue" d="M115.62,-495.5C115.62,-495.5 145.62,-495.5 145.62,-495.5 151.62,-495.5 157.62,-501.5 157.62,-507.5 157.62,-507.5 157.62,-519.5 157.62,-519.5 157.62,-525.5 151.62,-531.5 145.62,-531.5 145.62,-531.5 115.62,-531.5 115.62,-531.5 109.62,-531.5 103.62,-525.5 103.62,-519.5 103.62,-519.5 103.62,-507.5 103.62,-507.5 103.62,-501.5 109.62,-495.5 115.62,-495.5"/>
<text text-anchor="middle" x="130.62" y="-508.7" font-family="Times,serif" font-size="14.00">utils.o</text>
</g>
<!-- 1374390044672&#45;&gt;1374390043520 -->
<g id="edge5" class="edge">
<title>1374390044672&#45;&gt;1374390043520</title>
<path fill="none" stroke="black" d="M158.03,-499.13C162.94,-495.52 167.65,-491.29 171.25,-486.5 202.15,-445.38 176.7,-417.88 207.25,-376.5 208.71,-374.52 210.36,-372.62 212.13,-370.82"/>
<polygon fill="black" stroke="black" points="214.1,-373.75 219.33,-364.53 209.5,-368.47 214.1,-373.75"/>
</g>
<!-- 1374390045184 -->
<g id="node8" class="node">
<title>1374390045184</title>
<path fill="lightblue" stroke="lightblue" d="M232.88,-550.5C232.88,-550.5 262.88,-550.5 262.88,-550.5 268.88,-550.5 274.88,-556.5 274.88,-562.5 274.88,-562.5 274.88,-574.5 274.88,-574.5 274.88,-580.5 268.88,-586.5 262.88,-586.5 262.88,-586.5 232.88,-586.5 232.88,-586.5 226.88,-586.5 220.88,-580.5 220.88,-574.5 220.88,-574.5 220.88,-562.5 220.88,-562.5 220.88,-556.5 226.88,-550.5 232.88,-550.5"/>
<text text-anchor="middle" x="247.88" y="-563.7" font-family="Times,serif" font-size="14.00">utils.c</text>
</g>
<!-- 1374390044672&#45;&gt;1374390045184 -->
<g id="edge4" class="edge">
<title>1374390044672&#45;&gt;1374390045184</title>
<path fill="none" stroke="black" d="M158.07,-526.12C173.59,-533.52 193.42,-542.99 210.41,-551.1"/>
<polygon fill="black" stroke="black" points="208.66,-554.14 219.19,-555.29 211.67,-547.82 208.66,-554.14"/>
</g>
<!-- 1374390045248 -->
<g id="node9" class="node">
<title>1374390045248</title>
<path fill="lightblue" stroke="lightblue" d="M232.88,-495.5C232.88,-495.5 262.88,-495.5 262.88,-495.5 268.88,-495.5 274.88,-501.5 274.88,-507.5 274.88,-507.5 274.88,-519.5 274.88,-519.5 274.88,-525.5 268.88,-531.5 262.88,-531.5 262.88,-531.5 232.88,-531.5 232.88,-531.5 226.88,-531.5 220.88,-525.5 220.88,-519.5 220.88,-519.5 220.88,-507.5 220.88,-507.5 220.88,-501.5 226.88,-495.5 232.88,-495.5"/>
<text text-anchor="middle" x="247.88" y="-508.7" font-family="Times,serif" font-size="14.00">main.c</text>
</g>
<!-- 1374390045376 -->
<g id="node10" class="node">
<title>1374390045376</title>
<path fill="lightblue" stroke="lightblue" d="M229.75,-440.5C229.75,-440.5 266,-440.5 266,-440.5 272,-440.5 278,-446.5 278,-452.5 278,-452.5 278,-464.5 278,-464.5 278,-470.5 272,-476.5 266,-476.5 266,-476.5 229.75,-476.5 229.75,-476.5 223.75,-476.5 217.75,-470.5 217.75,-464.5 217.75,-464.5 217.75,-452.5 217.75,-452.5 217.75,-446.5 223.75,-440.5 229.75,-440.5"/>
<text text-anchor="middle" x="247.88" y="-453.7" font-family="Times,serif" font-size="14.00">search.c</text>
</g>
<!-- 1374390044352 -->
<g id="node11" class="node">
<title>1374390044352</title>
<path fill="lightblue" stroke="lightblue" d="M115.5,-440.5C115.5,-440.5 145.75,-440.5 145.75,-440.5 151.75,-440.5 157.75,-446.5 157.75,-452.5 157.75,-452.5 157.75,-464.5 157.75,-464.5 157.75,-470.5 151.75,-476.5 145.75,-476.5 145.75,-476.5 115.5,-476.5 115.5,-476.5 109.5,-476.5 103.5,-470.5 103.5,-464.5 103.5,-464.5 103.5,-452.5 103.5,-452.5 103.5,-446.5 109.5,-440.5 115.5,-440.5"/>
<text text-anchor="middle" x="130.62" y="-453.7" font-family="Times,serif" font-size="14.00">main.o</text>
</g>
<!-- 1374390044352&#45;&gt;1374390043520 -->
<g id="edge7" class="edge">
<title>1374390044352&#45;&gt;1374390043520</title>
<path fill="none" stroke="black" d="M157.93,-442.74C162.63,-439.34 167.28,-435.54 171.25,-431.5 191.72,-410.65 186.96,-397.52 207.25,-376.5 208.74,-374.95 210.33,-373.44 211.98,-371.96"/>
<polygon fill="black" stroke="black" points="213.87,-374.94 219.41,-365.91 209.45,-369.51 213.87,-374.94"/>
</g>
<!-- 1374390044352&#45;&gt;1374390045248 -->
<g id="edge6" class="edge">
<title>1374390044352&#45;&gt;1374390045248</title>
<path fill="none" stroke="black" d="M158.07,-471.12C173.59,-478.52 193.42,-487.99 210.41,-496.1"/>
<polygon fill="black" stroke="black" points="208.66,-499.14 219.19,-500.29 211.67,-492.82 208.66,-499.14"/>
</g>
<!-- 1374390044480 -->
<g id="node12" class="node">
<title>1374390044480</title>
<path fill="lightblue" stroke="lightblue" d="M110.25,-275.5C110.25,-275.5 151,-275.5 151,-275.5 157,-275.5 163,-281.5 163,-287.5 163,-287.5 163,-299.5 163,-299.5 163,-305.5 157,-311.5 151,-311.5 151,-311.5 110.25,-311.5 110.25,-311.5 104.25,-311.5 98.25,-305.5 98.25,-299.5 98.25,-299.5 98.25,-287.5 98.25,-287.5 98.25,-281.5 104.25,-275.5 110.25,-275.5"/>
<text text-anchor="middle" x="130.62" y="-288.7" font-family="Times,serif" font-size="14.00">display.o</text>
</g>
<!-- 1374390044480&#45;&gt;1374390043520 -->
<g id="edge9" class="edge">
<title>1374390044480&#45;&gt;1374390043520</title>
<path fill="none" stroke="black" d="M163.42,-308.67C178.04,-315.65 195.45,-323.96 210.58,-331.18"/>
<polygon fill="black" stroke="black" points="208.73,-334.17 219.26,-335.32 211.74,-327.86 208.73,-334.17"/>
</g>
<!-- 1374390044480&#45;&gt;1374390044160 -->
<g id="edge10" class="edge">
<title>1374390044480&#45;&gt;1374390044160</title>
<path fill="none" stroke="black" d="M163.42,-278.33C177.26,-271.72 193.59,-263.93 208.13,-256.99"/>
<polygon fill="black" stroke="black" points="209.45,-260.24 216.96,-252.77 206.43,-253.92 209.45,-260.24"/>
</g>
<!-- 1374390045056 -->
<g id="node13" class="node">
<title>1374390045056</title>
<path fill="lightblue" stroke="lightblue" d="M227.88,-275.5C227.88,-275.5 267.88,-275.5 267.88,-275.5 273.88,-275.5 279.88,-281.5 279.88,-287.5 279.88,-287.5 279.88,-299.5 279.88,-299.5 279.88,-305.5 273.88,-311.5 267.88,-311.5 267.88,-311.5 227.88,-311.5 227.88,-311.5 221.88,-311.5 215.88,-305.5 215.88,-299.5 215.88,-299.5 215.88,-287.5 215.88,-287.5 215.88,-281.5 221.88,-275.5 227.88,-275.5"/>
<text text-anchor="middle" x="247.88" y="-288.7" font-family="Times,serif" font-size="14.00">display.c</text>
</g>
<!-- 1374390044480&#45;&gt;1374390045056 -->
<g id="edge8" class="edge">
<title>1374390044480&#45;&gt;1374390045056</title>
<path fill="none" stroke="black" d="M163.42,-293.5C176,-293.5 190.64,-293.5 204.12,-293.5"/>
<polygon fill="black" stroke="black" points="204.07,-297 214.07,-293.5 204.07,-290 204.07,-297"/>
</g>
<!-- 1374390044608 -->
<g id="node14" class="node">
<title>1374390044608</title>
<path fill="lightblue" stroke="lightblue" d="M112.12,-385.5C112.12,-385.5 149.12,-385.5 149.12,-385.5 155.12,-385.5 161.12,-391.5 161.12,-397.5 161.12,-397.5 161.12,-409.5 161.12,-409.5 161.12,-415.5 155.12,-421.5 149.12,-421.5 149.12,-421.5 112.12,-421.5 112.12,-421.5 106.12,-421.5 100.12,-415.5 100.12,-409.5 100.12,-409.5 100.12,-397.5 100.12,-397.5 100.12,-391.5 106.12,-385.5 112.12,-385.5"/>
<text text-anchor="middle" x="130.62" y="-398.7" font-family="Times,serif" font-size="14.00">search.o</text>
</g>
<!-- 1374390044608&#45;&gt;1374390043520 -->
<g id="edge12" class="edge">
<title>1374390044608&#45;&gt;1374390043520</title>
<path fill="none" stroke="black" d="M161.6,-389.19C176.6,-382.04 194.86,-373.32 210.63,-365.8"/>
<polygon fill="black" stroke="black" points="211.69,-369.17 219.21,-361.7 208.68,-362.85 211.69,-369.17"/>
</g>
<!-- 1374390044608&#45;&gt;1374390044160 -->
<g id="edge13" class="edge">
<title>1374390044608&#45;&gt;1374390044160</title>
<path fill="none" stroke="black" d="M161.26,-386.63C164.98,-383.61 168.45,-380.23 171.25,-376.5 202.15,-335.38 176.7,-307.88 207.25,-266.5 208.09,-265.36 209,-264.24 209.95,-263.16"/>
<polygon fill="black" stroke="black" points="212.12,-265.93 216.94,-256.5 207.29,-260.86 212.12,-265.93"/>
</g>
<!-- 1374390044608&#45;&gt;1374390045376 -->
<g id="edge11" class="edge">
<title>1374390044608&#45;&gt;1374390045376</title>
<path fill="none" stroke="black" d="M161.6,-417.81C175.59,-424.48 192.41,-432.51 207.41,-439.67"/>
<polygon fill="black" stroke="black" points="205.55,-442.65 216.08,-443.8 208.56,-436.34 205.55,-442.65"/>
</g>
<!-- 1374390044736 -->
<g id="node15" class="node">
<title>1374390044736</title>
<path fill="lightblue" stroke="lightblue" d="M12,-357.5C12,-357.5 42,-357.5 42,-357.5 48,-357.5 54,-363.5 54,-369.5 54,-369.5 54,-381.5 54,-381.5 54,-387.5 48,-393.5 42,-393.5 42,-393.5 12,-393.5 12,-393.5 6,-393.5 0,-387.5 0,-381.5 0,-381.5 0,-369.5 0,-369.5 0,-363.5 6,-357.5 12,-357.5"/>
<text text-anchor="middle" x="27" y="-370.7" font-family="Times,serif" font-size="14.00">clean</text>
</g>
<!-- 1374390043840 -->
<g id="node16" class="node">
<title>1374390043840</title>
<path fill="lightblue" stroke="lightblue" d="M232.88,-0.5C232.88,-0.5 262.88,-0.5 262.88,-0.5 268.88,-0.5 274.88,-6.5 274.88,-12.5 274.88,-12.5 274.88,-24.5 274.88,-24.5 274.88,-30.5 268.88,-36.5 262.88,-36.5 262.88,-36.5 232.88,-36.5 232.88,-36.5 226.88,-36.5 220.88,-30.5 220.88,-24.5 220.88,-24.5 220.88,-12.5 220.88,-12.5 220.88,-6.5 226.88,-0.5 232.88,-0.5"/>
<text text-anchor="middle" x="247.88" y="-13.7" font-family="Times,serif" font-size="14.00">kbd.c</text>
</g>
<!-- 1374390044032 -->
<g id="node17" class="node">
<title>1374390044032</title>
<path fill="lightblue" stroke="lightblue" d="M115.62,-165.5C115.62,-165.5 145.62,-165.5 145.62,-165.5 151.62,-165.5 157.62,-171.5 157.62,-177.5 157.62,-177.5 157.62,-189.5 157.62,-189.5 157.62,-195.5 151.62,-201.5 145.62,-201.5 145.62,-201.5 115.62,-201.5 115.62,-201.5 109.62,-201.5 103.62,-195.5 103.62,-189.5 103.62,-189.5 103.62,-177.5 103.62,-177.5 103.62,-171.5 109.62,-165.5 115.62,-165.5"/>
<text text-anchor="middle" x="130.62" y="-178.7" font-family="Times,serif" font-size="14.00">files.o</text>
</g>
<!-- 1374390044032&#45;&gt;1374390043520 -->
<g id="edge15" class="edge">
<title>1374390044032&#45;&gt;1374390043520</title>
<path fill="none" stroke="black" d="M158.03,-198.54C162.94,-202.27 167.65,-206.62 171.25,-211.5 201.8,-252.88 176.35,-280.38 207.25,-321.5 208.6,-323.3 210.11,-325.01 211.72,-326.65"/>
<polygon fill="black" stroke="black" points="209.45,-329.31 219.32,-333.15 213.99,-323.99 209.45,-329.31"/>
</g>
<!-- 1374390044032&#45;&gt;1374390043584 -->
<g id="edge17" class="edge">
<title>1374390044032&#45;&gt;1374390043584</title>
<path fill="none" stroke="black" d="M158.07,-170.88C169.93,-165.22 184.31,-158.36 198.02,-151.81"/>
<polygon fill="black" stroke="black" points="199.43,-155.02 206.95,-147.55 196.42,-148.7 199.43,-155.02"/>
</g>
<!-- 1374390044032&#45;&gt;1374390044096 -->
<g id="edge14" class="edge">
<title>1374390044032&#45;&gt;1374390044096</title>
<path fill="none" stroke="black" d="M157.93,-167.74C162.63,-164.34 167.28,-160.54 171.25,-156.5 191.72,-135.65 186.96,-122.52 207.25,-101.5 208.74,-99.95 210.33,-98.44 211.98,-96.96"/>
<polygon fill="black" stroke="black" points="213.87,-99.94 219.41,-90.91 209.45,-94.51 213.87,-99.94"/>
</g>
<!-- 1374390044032&#45;&gt;1374390044160 -->
<g id="edge16" class="edge">
<title>1374390044032&#45;&gt;1374390044160</title>
<path fill="none" stroke="black" d="M158.07,-196.12C172.78,-203.14 191.39,-212.02 207.76,-219.83"/>
<polygon fill="black" stroke="black" points="206.24,-222.98 216.77,-224.13 209.25,-216.67 206.24,-222.98"/>
</g>
<!-- 1374390044544 -->
<g id="node18" class="node">
<title>1374390044544</title>
<path fill="lightblue" stroke="lightblue" d="M114.38,-220.5C114.38,-220.5 146.88,-220.5 146.88,-220.5 152.88,-220.5 158.88,-226.5 158.88,-232.5 158.88,-232.5 158.88,-244.5 158.88,-244.5 158.88,-250.5 152.88,-256.5 146.88,-256.5 146.88,-256.5 114.38,-256.5 114.38,-256.5 108.38,-256.5 102.38,-250.5 102.38,-244.5 102.38,-244.5 102.38,-232.5 102.38,-232.5 102.38,-226.5 108.38,-220.5 114.38,-220.5"/>
<text text-anchor="middle" x="130.62" y="-233.7" font-family="Times,serif" font-size="14.00">insert.o</text>
</g>
<!-- 1374390044544&#45;&gt;1374390043520 -->
<g id="edge19" class="edge">
<title>1374390044544&#45;&gt;1374390043520</title>
<path fill="none" stroke="black" d="M159.16,-255.89C163.43,-259.16 167.62,-262.74 171.25,-266.5 191.54,-287.52 186.78,-300.65 207.25,-321.5 208.61,-322.89 210.06,-324.25 211.56,-325.57"/>
<polygon fill="black" stroke="black" points="209.38,-328.31 219.38,-331.8 213.73,-322.83 209.38,-328.31"/>
</g>
<!-- 1374390044544&#45;&gt;1374390044160 -->
<g id="edge20" class="edge">
<title>1374390044544&#45;&gt;1374390044160</title>
<path fill="none" stroke="black" d="M159.23,-238.5C173.59,-238.5 191.4,-238.5 207.21,-238.5"/>
<polygon fill="black" stroke="black" points="206.78,-242 216.78,-238.5 206.78,-235 206.78,-242"/>
</g>
<!-- 1374390044864 -->
<g id="node19" class="node">
<title>1374390044864</title>
<path fill="lightblue" stroke="lightblue" d="M232,-165.5C232,-165.5 263.75,-165.5 263.75,-165.5 269.75,-165.5 275.75,-171.5 275.75,-177.5 275.75,-177.5 275.75,-189.5 275.75,-189.5 275.75,-195.5 269.75,-201.5 263.75,-201.5 263.75,-201.5 232,-201.5 232,-201.5 226,-201.5 220,-195.5 220,-189.5 220,-189.5 220,-177.5 220,-177.5 220,-171.5 226,-165.5 232,-165.5"/>
<text text-anchor="middle" x="247.88" y="-178.7" font-family="Times,serif" font-size="14.00">insert.c</text>
</g>
<!-- 1374390044544&#45;&gt;1374390044864 -->
<g id="edge18" class="edge">
<title>1374390044544&#45;&gt;1374390044864</title>
<path fill="none" stroke="black" d="M159.23,-225.33C174.31,-218.13 193.19,-209.12 209.56,-201.31"/>
<polygon fill="black" stroke="black" points="211.01,-204.49 218.53,-197.03 207.99,-198.18 211.01,-204.49"/>
</g>
<!-- 1374390043712 -->
<g id="node20" class="node">
<title>1374390043712</title>
<path fill="lightblue" stroke="lightblue" d="M115.62,-110.5C115.62,-110.5 145.62,-110.5 145.62,-110.5 151.62,-110.5 157.62,-116.5 157.62,-122.5 157.62,-122.5 157.62,-134.5 157.62,-134.5 157.62,-140.5 151.62,-146.5 145.62,-146.5 145.62,-146.5 115.62,-146.5 115.62,-146.5 109.62,-146.5 103.62,-140.5 103.62,-134.5 103.62,-134.5 103.62,-122.5 103.62,-122.5 103.62,-116.5 109.62,-110.5 115.62,-110.5"/>
<text text-anchor="middle" x="130.62" y="-123.7" font-family="Times,serif" font-size="14.00">kbd.o</text>
</g>
<!-- 1374390043712&#45;&gt;1374390043520 -->
<g id="edge22" class="edge">
<title>1374390043712&#45;&gt;1374390043520</title>
<path fill="none" stroke="black" d="M158.01,-142.95C163.04,-146.77 167.81,-151.3 171.25,-156.5 212.71,-219.07 165.26,-259.29 207.25,-321.5 208.65,-323.57 210.27,-325.53 212.03,-327.38"/>
<polygon fill="black" stroke="black" points="209.5,-329.81 219.35,-333.71 214.08,-324.52 209.5,-329.81"/>
</g>
<!-- 1374390043712&#45;&gt;1374390043584 -->
<g id="edge23" class="edge">
<title>1374390043712&#45;&gt;1374390043584</title>
<path fill="none" stroke="black" d="M158.07,-128.5C169.27,-128.5 182.73,-128.5 195.74,-128.5"/>
<polygon fill="black" stroke="black" points="195.47,-132 205.47,-128.5 195.47,-125 195.47,-132"/>
</g>
<!-- 1374390043712&#45;&gt;1374390043840 -->
<g id="edge21" class="edge">
<title>1374390043712&#45;&gt;1374390043840</title>
<path fill="none" stroke="black" d="M146.16,-110.2C160.64,-92.58 183.99,-65.69 207.25,-45.5 208.68,-44.26 210.16,-43.03 211.68,-41.82"/>
<polygon fill="black" stroke="black" points="213.54,-44.8 219.44,-36 209.34,-39.2 213.54,-44.8"/>
</g>
<!-- 1374390044288 -->
<g id="node21" class="node">
<title>1374390044288</title>
<path fill="lightblue" stroke="lightblue" d="M12,-302.5C12,-302.5 42,-302.5 42,-302.5 48,-302.5 54,-308.5 54,-314.5 54,-314.5 54,-326.5 54,-326.5 54,-332.5 48,-338.5 42,-338.5 42,-338.5 12,-338.5 12,-338.5 6,-338.5 0,-332.5 0,-326.5 0,-326.5 0,-314.5 0,-314.5 0,-308.5 6,-302.5 12,-302.5"/>
<text text-anchor="middle" x="27" y="-315.7" font-family="Times,serif" font-size="14.00">edit</text>
</g>
<!-- 1374390044288&#45;&gt;1374390043328 -->
<g id="edge26" class="edge">
<title>1374390044288&#45;&gt;1374390043328</title>
<path fill="none" stroke="black" d="M54.44,-327.78C61.88,-329.83 70.23,-332.14 78.6,-334.44"/>
<polygon fill="black" stroke="black" points="77.49,-337.77 88.06,-337.05 79.35,-331.02 77.49,-337.77"/>
</g>
<!-- 1374390044288&#45;&gt;1374390044672 -->
<g id="edge31" class="edge">
<title>1374390044288&#45;&gt;1374390044672</title>
<path fill="none" stroke="black" d="M47.28,-338.79C49.8,-341.84 52.15,-345.13 54,-348.5 84.49,-404.07 53.48,-434.69 90,-486.5 91.44,-488.55 93.09,-490.48 94.88,-492.31"/>
<polygon fill="black" stroke="black" points="92.38,-494.77 102.25,-498.61 96.93,-489.45 92.38,-494.77"/>
</g>
<!-- 1374390044288&#45;&gt;1374390044352 -->
<g id="edge24" class="edge">
<title>1374390044288&#45;&gt;1374390044352</title>
<path fill="none" stroke="black" d="M46.56,-338.75C49.24,-341.86 51.82,-345.17 54,-348.5 76,-382.16 64.38,-400.51 90,-431.5 91.39,-433.18 92.92,-434.81 94.53,-436.36"/>
<polygon fill="black" stroke="black" points="92.07,-438.87 101.99,-442.59 96.56,-433.5 92.07,-438.87"/>
</g>
<!-- 1374390044288&#45;&gt;1374390044480 -->
<g id="edge27" class="edge">
<title>1374390044288&#45;&gt;1374390044480</title>
<path fill="none" stroke="black" d="M54.44,-313.48C64.4,-310.83 76.01,-307.74 87.08,-304.8"/>
<polygon fill="black" stroke="black" points="87.66,-308.27 96.43,-302.32 85.87,-301.5 87.66,-308.27"/>
</g>
<!-- 1374390044288&#45;&gt;1374390044608 -->
<g id="edge29" class="edge">
<title>1374390044288&#45;&gt;1374390044608</title>
<path fill="none" stroke="black" d="M46.95,-338.86C58.94,-350.15 74.95,-364.67 90,-376.5 90.8,-377.13 91.62,-377.76 92.44,-378.39"/>
<polygon fill="black" stroke="black" points="90.21,-381.1 100.35,-384.19 94.35,-375.46 90.21,-381.1"/>
</g>
<!-- 1374390044288&#45;&gt;1374390044032 -->
<g id="edge30" class="edge">
<title>1374390044288&#45;&gt;1374390044032</title>
<path fill="none" stroke="black" d="M35.35,-302.36C45.28,-279.37 64.7,-239.4 90,-211.5 91.44,-209.91 92.99,-208.36 94.61,-206.85"/>
<polygon fill="black" stroke="black" points="96.52,-209.82 101.96,-200.73 92.04,-204.44 96.52,-209.82"/>
</g>
<!-- 1374390044288&#45;&gt;1374390044544 -->
<g id="edge28" class="edge">
<title>1374390044288&#45;&gt;1374390044544</title>
<path fill="none" stroke="black" d="M47.95,-302.21C59.89,-291.5 75.52,-277.87 90,-266.5 91.28,-265.49 92.6,-264.48 93.94,-263.46"/>
<polygon fill="black" stroke="black" points="95.75,-266.47 101.71,-257.71 91.59,-260.84 95.75,-266.47"/>
</g>
<!-- 1374390044288&#45;&gt;1374390043712 -->
<g id="edge25" class="edge">
<title>1374390044288&#45;&gt;1374390043712</title>
<path fill="none" stroke="black" d="M31.28,-302.03C37.78,-269.71 54.79,-202 90,-156.5 91.51,-154.55 93.19,-152.68 94.98,-150.9"/>
<polygon fill="black" stroke="black" points="96.95,-153.83 102.24,-144.65 92.38,-148.52 96.95,-153.83"/>
</g>
</g>
</svg>
