<?xml version="1.0" encoding="UTF-8" standalone="no"?>
<!DOCTYPE svg PUBLIC "-//W3C//DTD SVG 1.1//EN"
 "http://www.w3.org/Graphics/SVG/1.1/DTD/svg11.dtd">
<!-- Generated by graphviz version 10.0.1 (20240210.2158)
 -->
<!-- Pages: 1 -->
<svg width="859pt" height="191pt"
 viewBox="0.00 0.00 859.00 191.00" xmlns="http://www.w3.org/2000/svg" xmlns:xlink="http://www.w3.org/1999/xlink">
<g id="graph0" class="graph" transform="scale(1 1) rotate(0) translate(4 187)">
<polygon fill="white" stroke="none" points="-4,4 -4,-187 855,-187 855,4 -4,4"/>
<!-- 1374390223808 -->
<g id="node1" class="node">
<title>1374390223808</title>
<path fill="lightgreen" stroke="lightgreen" d="M254.38,-0.5C254.38,-0.5 311.62,-0.5 311.62,-0.5 317.62,-0.5 323.62,-6.5 323.62,-12.5 323.62,-12.5 323.62,-24.5 323.62,-24.5 323.62,-30.5 317.62,-36.5 311.62,-36.5 311.62,-36.5 254.38,-36.5 254.38,-36.5 248.38,-36.5 242.38,-30.5 242.38,-24.5 242.38,-24.5 242.38,-12.5 242.38,-12.5 242.38,-6.5 248.38,-0.5 254.38,-0.5"/>
<text text-anchor="middle" x="283" y="-13.45" font-family="Times,serif" font-size="14.00">command.h</text>
</g>
<!-- 1374390224064 -->
<g id="node2" class="node">
<title>1374390224064</title>
<path fill="lightblue" stroke="lightblue" d="M12,-0.5C12,-0.5 42,-0.5 42,-0.5 48,-0.5 54,-6.5 54,-12.5 54,-12.5 54,-24.5 54,-24.5 54,-30.5 48,-36.5 42,-36.5 42,-36.5 12,-36.5 12,-36.5 6,-36.5 0,-30.5 0,-24.5 0,-24.5 0,-12.5 0,-12.5 0,-6.5 6,-0.5 12,-0.5"/>
<text text-anchor="middle" x="27" y="-13.45" font-family="Times,serif" font-size="14.00">kbd.c</text>
</g>
<!-- 1374390224384 -->
<g id="node3" class="node">
<title>1374390224384</title>
<path fill="lightgreen" stroke="lightgreen" d="M571.62,-0.5C571.62,-0.5 606.38,-0.5 606.38,-0.5 612.38,-0.5 618.38,-6.5 618.38,-12.5 618.38,-12.5 618.38,-24.5 618.38,-24.5 618.38,-30.5 612.38,-36.5 606.38,-36.5 606.38,-36.5 571.62,-36.5 571.62,-36.5 565.62,-36.5 559.62,-30.5 559.62,-24.5 559.62,-24.5 559.62,-12.5 559.62,-12.5 559.62,-6.5 565.62,-0.5 571.62,-0.5"/>
<text text-anchor="middle" x="589" y="-13.45" font-family="Times,serif" font-size="14.00">buffer.h</text>
</g>
<!-- 1374390224576 -->
<g id="node4" class="node">
<title>1374390224576</title>
<path fill="lightblue" stroke="lightblue" d="M251.88,-73.5C251.88,-73.5 282.12,-73.5 282.12,-73.5 288.12,-73.5 294.12,-79.5 294.12,-85.5 294.12,-85.5 294.12,-97.5 294.12,-97.5 294.12,-103.5 288.12,-109.5 282.12,-109.5 282.12,-109.5 251.88,-109.5 251.88,-109.5 245.88,-109.5 239.88,-103.5 239.88,-97.5 239.88,-97.5 239.88,-85.5 239.88,-85.5 239.88,-79.5 245.88,-73.5 251.88,-73.5"/>
<text text-anchor="middle" x="267" y="-86.45" font-family="Times,serif" font-size="14.00">main.o</text>
</g>
<!-- 1374390225472 -->
<g id="node5" class="node">
<title>1374390225472</title>
<path fill="lightblue" stroke="lightblue" d="M84,-0.5C84,-0.5 114,-0.5 114,-0.5 120,-0.5 126,-6.5 126,-12.5 126,-12.5 126,-24.5 126,-24.5 126,-30.5 120,-36.5 114,-36.5 114,-36.5 84,-36.5 84,-36.5 78,-36.5 72,-30.5 72,-24.5 72,-24.5 72,-12.5 72,-12.5 72,-6.5 78,-0.5 84,-0.5"/>
<text text-anchor="middle" x="98.75" y="-13.45" font-family="Times,serif" font-size="14.00">main.c</text>
</g>
<!-- 1374390224576&#45;&gt;1374390225472 -->
<g id="edge1" class="edge">
<title>1374390224576&#45;&gt;1374390225472</title>
<path fill="none" stroke="black" d="M239.61,-76.86C236.72,-75.52 233.81,-74.21 231,-73 192.16,-56.32 178.8,-55.08 136.76,-37.55"/>
<polygon fill="black" stroke="black" points="138.36,-34.43 127.79,-33.74 135.62,-40.87 138.36,-34.43"/>
</g>
<!-- 1374390223744 -->
<g id="node6" class="node">
<title>1374390223744</title>
<path fill="lightgreen" stroke="lightgreen" d="M426,-0.5C426,-0.5 456,-0.5 456,-0.5 462,-0.5 468,-6.5 468,-12.5 468,-12.5 468,-24.5 468,-24.5 468,-30.5 462,-36.5 456,-36.5 456,-36.5 426,-36.5 426,-36.5 420,-36.5 414,-30.5 414,-24.5 414,-24.5 414,-12.5 414,-12.5 414,-6.5 420,-0.5 426,-0.5"/>
<text text-anchor="middle" x="441" y="-13.45" font-family="Times,serif" font-size="14.00">defs.h</text>
</g>
<!-- 1374390224576&#45;&gt;1374390223744 -->
<g id="edge2" class="edge">
<title>1374390224576&#45;&gt;1374390223744</title>
<path fill="none" stroke="black" d="M294.37,-76.8C297.26,-75.47 300.18,-74.18 303,-73 344.24,-55.77 358.62,-55.48 403.02,-37.58"/>
<polygon fill="black" stroke="black" points="404.32,-40.83 412.23,-33.78 401.65,-34.36 404.32,-40.83"/>
</g>
<!-- 1374390224704 -->
<g id="node7" class="node">
<title>1374390224704</title>
<path fill="lightblue" stroke="lightblue" d="M649.62,-73.5C649.62,-73.5 690.38,-73.5 690.38,-73.5 696.38,-73.5 702.38,-79.5 702.38,-85.5 702.38,-85.5 702.38,-97.5 702.38,-97.5 702.38,-103.5 696.38,-109.5 690.38,-109.5 690.38,-109.5 649.62,-109.5 649.62,-109.5 643.62,-109.5 637.62,-103.5 637.62,-97.5 637.62,-97.5 637.62,-85.5 637.62,-85.5 637.62,-79.5 643.62,-73.5 649.62,-73.5"/>
<text text-anchor="middle" x="670" y="-86.45" font-family="Times,serif" font-size="14.00">display.o</text>
</g>
<!-- 1374390224704&#45;&gt;1374390224384 -->
<g id="edge5" class="edge">
<title>1374390224704&#45;&gt;1374390224384</title>
<path fill="none" stroke="black" d="M650.39,-73.31C640.42,-64.57 628.11,-53.78 617.15,-44.17"/>
<polygon fill="black" stroke="black" points="619.67,-41.73 609.85,-37.77 615.06,-47 619.67,-41.73"/>
</g>
<!-- 1374390224704&#45;&gt;1374390223744 -->
<g id="edge4" class="edge">
<title>1374390224704&#45;&gt;1374390223744</title>
<path fill="none" stroke="black" d="M637.52,-76.04C634.66,-74.95 631.79,-73.92 629,-73 566.28,-52.35 544.52,-59.51 478.74,-37.19"/>
<polygon fill="black" stroke="black" points="480.27,-34.02 469.68,-34.01 477.96,-40.63 480.27,-34.02"/>
</g>
<!-- 1374390225280 -->
<g id="node8" class="node">
<title>1374390225280</title>
<path fill="lightblue" stroke="lightblue" d="M727,-0.5C727,-0.5 767,-0.5 767,-0.5 773,-0.5 779,-6.5 779,-12.5 779,-12.5 779,-24.5 779,-24.5 779,-30.5 773,-36.5 767,-36.5 767,-36.5 727,-36.5 727,-36.5 721,-36.5 715,-30.5 715,-24.5 715,-24.5 715,-12.5 715,-12.5 715,-6.5 721,-0.5 727,-0.5"/>
<text text-anchor="middle" x="747" y="-13.45" font-family="Times,serif" font-size="14.00">display.c</text>
</g>
<!-- 1374390224704&#45;&gt;1374390225280 -->
<g id="edge3" class="edge">
<title>1374390224704&#45;&gt;1374390225280</title>
<path fill="none" stroke="black" d="M688.64,-73.31C698.03,-64.66 709.59,-54 719.93,-44.46"/>
<polygon fill="black" stroke="black" points="722.17,-47.15 727.15,-37.8 717.43,-42.01 722.17,-47.15"/>
</g>
<!-- 1374390223680 -->
<g id="node9" class="node">
<title>1374390223680</title>
<path fill="lightblue" stroke="lightblue" d="M155.75,-0.5C155.75,-0.5 212.25,-0.5 212.25,-0.5 218.25,-0.5 224.25,-6.5 224.25,-12.5 224.25,-12.5 224.25,-24.5 224.25,-24.5 224.25,-30.5 218.25,-36.5 212.25,-36.5 212.25,-36.5 155.75,-36.5 155.75,-36.5 149.75,-36.5 143.75,-30.5 143.75,-24.5 143.75,-24.5 143.75,-12.5 143.75,-12.5 143.75,-6.5 149.75,-0.5 155.75,-0.5"/>
<text text-anchor="middle" x="184" y="-13.45" font-family="Times,serif" font-size="14.00">command.c</text>
</g>
<!-- 1374390223936 -->
<g id="node10" class="node">
<title>1374390223936</title>
<path fill="lightblue" stroke="lightblue" d="M180,-73.5C180,-73.5 210,-73.5 210,-73.5 216,-73.5 222,-79.5 222,-85.5 222,-85.5 222,-97.5 222,-97.5 222,-103.5 216,-109.5 210,-109.5 210,-109.5 180,-109.5 180,-109.5 174,-109.5 168,-103.5 168,-97.5 168,-97.5 168,-85.5 168,-85.5 168,-79.5 174,-73.5 180,-73.5"/>
<text text-anchor="middle" x="194.88" y="-86.45" font-family="Times,serif" font-size="14.00">kbd.o</text>
</g>
<!-- 1374390223936&#45;&gt;1374390223808 -->
<g id="edge8" class="edge">
<title>1374390223936&#45;&gt;1374390223808</title>
<path fill="none" stroke="black" d="M216.3,-73.31C227.25,-64.48 240.77,-53.57 252.77,-43.89"/>
<polygon fill="black" stroke="black" points="254.83,-46.73 260.41,-37.73 250.43,-41.28 254.83,-46.73"/>
</g>
<!-- 1374390223936&#45;&gt;1374390224064 -->
<g id="edge6" class="edge">
<title>1374390223936&#45;&gt;1374390224064</title>
<path fill="none" stroke="black" d="M167.72,-80.07C142.97,-70.46 105.29,-55.51 64.78,-37.67"/>
<polygon fill="black" stroke="black" points="66.37,-34.54 55.81,-33.68 63.53,-40.94 66.37,-34.54"/>
</g>
<!-- 1374390223936&#45;&gt;1374390223744 -->
<g id="edge7" class="edge">
<title>1374390223936&#45;&gt;1374390223744</title>
<path fill="none" stroke="black" d="M222.22,-76.4C225.14,-75.15 228.11,-73.99 231,-73 302.4,-48.68 327.94,-61.2 402.87,-37.23"/>
<polygon fill="black" stroke="black" points="403.96,-40.56 412.34,-34.08 401.75,-33.91 403.96,-40.56"/>
</g>
<!-- 1374390224256 -->
<g id="node11" class="node">
<title>1374390224256</title>
<path fill="lightgreen" stroke="lightgreen" d="M424,-73.5C424,-73.5 454,-73.5 454,-73.5 460,-73.5 466,-79.5 466,-85.5 466,-85.5 466,-97.5 466,-97.5 466,-103.5 460,-109.5 454,-109.5 454,-109.5 424,-109.5 424,-109.5 418,-109.5 412,-103.5 412,-97.5 412,-97.5 412,-85.5 412,-85.5 412,-79.5 418,-73.5 424,-73.5"/>
<text text-anchor="middle" x="438.88" y="-86.45" font-family="Times,serif" font-size="14.00">files.o</text>
</g>
<!-- 1374390224256&#45;&gt;1374390223808 -->
<g id="edge12" class="edge">
<title>1374390224256&#45;&gt;1374390223808</title>
<path fill="none" stroke="black" d="M411.53,-77.03C408.65,-75.66 405.77,-74.29 403,-73 380.17,-62.36 354.7,-50.95 333.13,-41.41"/>
<polygon fill="black" stroke="black" points="334.82,-38.33 324.26,-37.49 332,-44.73 334.82,-38.33"/>
</g>
<!-- 1374390224256&#45;&gt;1374390224384 -->
<g id="edge11" class="edge">
<title>1374390224256&#45;&gt;1374390224384</title>
<path fill="none" stroke="black" d="M466.5,-77.08C469.37,-75.7 472.24,-74.32 475,-73 499.58,-61.26 527.24,-48.27 549.16,-38.03"/>
<polygon fill="black" stroke="black" points="550.47,-41.29 558.05,-33.89 547.51,-34.94 550.47,-41.29"/>
</g>
<!-- 1374390224256&#45;&gt;1374390223744 -->
<g id="edge10" class="edge">
<title>1374390224256&#45;&gt;1374390223744</title>
<path fill="none" stroke="black" d="M439.48,-73.31C439.7,-65.64 439.96,-56.39 440.2,-47.74"/>
<polygon fill="black" stroke="black" points="443.69,-48.14 440.48,-38.04 436.7,-47.94 443.69,-48.14"/>
</g>
<!-- 1374390224320 -->
<g id="node12" class="node">
<title>1374390224320</title>
<path fill="lightgreen" stroke="lightgreen" d="M354,-0.5C354,-0.5 384,-0.5 384,-0.5 390,-0.5 396,-6.5 396,-12.5 396,-12.5 396,-24.5 396,-24.5 396,-30.5 390,-36.5 384,-36.5 384,-36.5 354,-36.5 354,-36.5 348,-36.5 342,-30.5 342,-24.5 342,-24.5 342,-12.5 342,-12.5 342,-6.5 348,-0.5 354,-0.5"/>
<text text-anchor="middle" x="369" y="-13.45" font-family="Times,serif" font-size="14.00">files.c</text>
</g>
<!-- 1374390224256&#45;&gt;1374390224320 -->
<g id="edge9" class="edge">
<title>1374390224256&#45;&gt;1374390224320</title>
<path fill="none" stroke="black" d="M422.05,-73.31C413.54,-64.68 403.07,-54.06 393.68,-44.53"/>
<polygon fill="black" stroke="black" points="396.36,-42.27 386.85,-37.61 391.38,-47.18 396.36,-42.27"/>
</g>
<!-- 1374390224512 -->
<g id="node13" class="node">
<title>1374390224512</title>
<path fill="lightblue" stroke="lightblue" d="M460,-146.5C460,-146.5 490,-146.5 490,-146.5 496,-146.5 502,-152.5 502,-158.5 502,-158.5 502,-170.5 502,-170.5 502,-176.5 496,-182.5 490,-182.5 490,-182.5 460,-182.5 460,-182.5 454,-182.5 448,-176.5 448,-170.5 448,-170.5 448,-158.5 448,-158.5 448,-152.5 454,-146.5 460,-146.5"/>
<text text-anchor="middle" x="474.62" y="-159.45" font-family="Times,serif" font-size="14.00">edit</text>
</g>
<!-- 1374390224512&#45;&gt;1374390224576 -->
<g id="edge13" class="edge">
<title>1374390224512&#45;&gt;1374390224576</title>
<path fill="none" stroke="black" d="M447.75,-156.4C415.54,-147.71 360.24,-131.87 305,-110.51"/>
<polygon fill="black" stroke="black" points="306.32,-107.27 295.73,-106.86 303.76,-113.78 306.32,-107.27"/>
</g>
<!-- 1374390224512&#45;&gt;1374390224704 -->
<g id="edge16" class="edge">
<title>1374390224512&#45;&gt;1374390224704</title>
<path fill="none" stroke="black" d="M502.32,-149.67C505.22,-148.37 508.15,-147.12 511,-146 558.84,-127.21 575.42,-128.52 626.71,-110.62"/>
<polygon fill="black" stroke="black" points="627.8,-113.94 636.03,-107.28 625.43,-107.36 627.8,-113.94"/>
</g>
<!-- 1374390224512&#45;&gt;1374390223936 -->
<g id="edge14" class="edge">
<title>1374390224512&#45;&gt;1374390223936</title>
<path fill="none" stroke="black" d="M447.71,-159.68C403.91,-153.09 315.26,-137.88 233.01,-110.27"/>
<polygon fill="black" stroke="black" points="234.26,-107 223.66,-107.06 231.98,-113.62 234.26,-107"/>
</g>
<!-- 1374390224512&#45;&gt;1374390224256 -->
<g id="edge19" class="edge">
<title>1374390224512&#45;&gt;1374390224256</title>
<path fill="none" stroke="black" d="M466.29,-146.31C462.22,-138.29 457.28,-128.55 452.73,-119.57"/>
<polygon fill="black" stroke="black" points="455.96,-118.21 448.32,-110.88 449.72,-121.38 455.96,-118.21"/>
</g>
<!-- 1374390223552 -->
<g id="node14" class="node">
<title>1374390223552</title>
<path fill="lightblue" stroke="lightblue" d="M324.38,-73.5C324.38,-73.5 381.62,-73.5 381.62,-73.5 387.62,-73.5 393.62,-79.5 393.62,-85.5 393.62,-85.5 393.62,-97.5 393.62,-97.5 393.62,-103.5 387.62,-109.5 381.62,-109.5 381.62,-109.5 324.38,-109.5 324.38,-109.5 318.38,-109.5 312.38,-103.5 312.38,-97.5 312.38,-97.5 312.38,-85.5 312.38,-85.5 312.38,-79.5 318.38,-73.5 324.38,-73.5"/>
<text text-anchor="middle" x="353" y="-86.45" font-family="Times,serif" font-size="14.00">command.o</text>
</g>
<!-- 1374390224512&#45;&gt;1374390223552 -->
<g id="edge15" class="edge">
<title>1374390224512&#45;&gt;1374390223552</title>
<path fill="none" stroke="black" d="M447.62,-147.57C431.45,-138.16 410.71,-126.08 392.76,-115.64"/>
<polygon fill="black" stroke="black" points="394.56,-112.64 384.16,-110.63 391.04,-118.69 394.56,-112.64"/>
</g>
<!-- 1374390224768 -->
<g id="node15" class="node">
<title>1374390224768</title>
<path fill="lightblue" stroke="lightblue" d="M495.75,-73.5C495.75,-73.5 528.25,-73.5 528.25,-73.5 534.25,-73.5 540.25,-79.5 540.25,-85.5 540.25,-85.5 540.25,-97.5 540.25,-97.5 540.25,-103.5 534.25,-109.5 528.25,-109.5 528.25,-109.5 495.75,-109.5 495.75,-109.5 489.75,-109.5 483.75,-103.5 483.75,-97.5 483.75,-97.5 483.75,-85.5 483.75,-85.5 483.75,-79.5 489.75,-73.5 495.75,-73.5"/>
<text text-anchor="middle" x="512" y="-86.45" font-family="Times,serif" font-size="14.00">insert.o</text>
</g>
<!-- 1374390224512&#45;&gt;1374390224768 -->
<g id="edge17" class="edge">
<title>1374390224512&#45;&gt;1374390224768</title>
<path fill="none" stroke="black" d="M483.96,-146.31C488.14,-138.29 493.21,-128.55 497.89,-119.57"/>
<polygon fill="black" stroke="black" points="500.91,-121.36 502.43,-110.87 494.7,-118.12 500.91,-121.36"/>
</g>
<!-- 1374390224832 -->
<g id="node16" class="node">
<title>1374390224832</title>
<path fill="lightblue" stroke="lightblue" d="M570.5,-73.5C570.5,-73.5 607.5,-73.5 607.5,-73.5 613.5,-73.5 619.5,-79.5 619.5,-85.5 619.5,-85.5 619.5,-97.5 619.5,-97.5 619.5,-103.5 613.5,-109.5 607.5,-109.5 607.5,-109.5 570.5,-109.5 570.5,-109.5 564.5,-109.5 558.5,-103.5 558.5,-97.5 558.5,-97.5 558.5,-85.5 558.5,-85.5 558.5,-79.5 564.5,-73.5 570.5,-73.5"/>
<text text-anchor="middle" x="589" y="-86.45" font-family="Times,serif" font-size="14.00">search.o</text>
</g>
<!-- 1374390224512&#45;&gt;1374390224832 -->
<g id="edge18" class="edge">
<title>1374390224512&#45;&gt;1374390224832</title>
<path fill="none" stroke="black" d="M502.31,-146.49C517.03,-137.32 535.43,-125.86 551.49,-115.86"/>
<polygon fill="black" stroke="black" points="553.2,-118.92 559.84,-110.66 549.5,-112.98 553.2,-118.92"/>
</g>
<!-- 1374390224896 -->
<g id="node17" class="node">
<title>1374390224896</title>
<path fill="lightblue" stroke="lightblue" d="M732,-73.5C732,-73.5 762,-73.5 762,-73.5 768,-73.5 774,-79.5 774,-85.5 774,-85.5 774,-97.5 774,-97.5 774,-103.5 768,-109.5 762,-109.5 762,-109.5 732,-109.5 732,-109.5 726,-109.5 720,-103.5 720,-97.5 720,-97.5 720,-85.5 720,-85.5 720,-79.5 726,-73.5 732,-73.5"/>
<text text-anchor="middle" x="746.88" y="-86.45" font-family="Times,serif" font-size="14.00">utils.o</text>
</g>
<!-- 1374390224512&#45;&gt;1374390224896 -->
<g id="edge20" class="edge">
<title>1374390224512&#45;&gt;1374390224896</title>
<path fill="none" stroke="black" d="M502.19,-149.32C505.12,-148.09 508.09,-146.95 511,-146 593.51,-119.09 622.84,-136.52 709.01,-110.12"/>
<polygon fill="black" stroke="black" points="709.9,-113.51 718.36,-107.14 707.77,-106.84 709.9,-113.51"/>
</g>
<!-- 1374390223552&#45;&gt;1374390223808 -->
<g id="edge31" class="edge">
<title>1374390223552&#45;&gt;1374390223808</title>
<path fill="none" stroke="black" d="M336.05,-73.31C327.54,-64.68 317.07,-54.06 307.68,-44.53"/>
<polygon fill="black" stroke="black" points="310.36,-42.27 300.85,-37.61 305.38,-47.18 310.36,-42.27"/>
</g>
<!-- 1374390223552&#45;&gt;1374390223744 -->
<g id="edge30" class="edge">
<title>1374390223552&#45;&gt;1374390223744</title>
<path fill="none" stroke="black" d="M374.3,-73.31C385.25,-64.48 398.77,-53.57 410.77,-43.89"/>
<polygon fill="black" stroke="black" points="412.83,-46.73 418.41,-37.73 408.43,-41.28 412.83,-46.73"/>
</g>
<!-- 1374390223552&#45;&gt;1374390223680 -->
<g id="edge29" class="edge">
<title>1374390223552&#45;&gt;1374390223680</title>
<path fill="none" stroke="black" d="M312.09,-73.31C288.94,-63.59 259.79,-51.34 235.14,-40.99"/>
<polygon fill="black" stroke="black" points="236.5,-37.76 225.93,-37.12 233.79,-44.22 236.5,-37.76"/>
</g>
<!-- 1374390224768&#45;&gt;1374390224384 -->
<g id="edge26" class="edge">
<title>1374390224768&#45;&gt;1374390224384</title>
<path fill="none" stroke="black" d="M530.64,-73.31C540.03,-64.66 551.59,-54 561.93,-44.46"/>
<polygon fill="black" stroke="black" points="564.17,-47.15 569.15,-37.8 559.43,-42.01 564.17,-47.15"/>
</g>
<!-- 1374390224768&#45;&gt;1374390223744 -->
<g id="edge25" class="edge">
<title>1374390224768&#45;&gt;1374390223744</title>
<path fill="none" stroke="black" d="M494.81,-73.31C486.18,-64.68 475.56,-54.06 466.03,-44.53"/>
<polygon fill="black" stroke="black" points="468.65,-42.2 459.1,-37.6 463.7,-47.15 468.65,-42.2"/>
</g>
<!-- 1374390225088 -->
<g id="node20" class="node">
<title>1374390225088</title>
<path fill="lightblue" stroke="lightblue" d="M498.12,-0.5C498.12,-0.5 529.88,-0.5 529.88,-0.5 535.88,-0.5 541.88,-6.5 541.88,-12.5 541.88,-12.5 541.88,-24.5 541.88,-24.5 541.88,-30.5 535.88,-36.5 529.88,-36.5 529.88,-36.5 498.12,-36.5 498.12,-36.5 492.12,-36.5 486.12,-30.5 486.12,-24.5 486.12,-24.5 486.12,-12.5 486.12,-12.5 486.12,-6.5 492.12,-0.5 498.12,-0.5"/>
<text text-anchor="middle" x="514" y="-13.45" font-family="Times,serif" font-size="14.00">insert.c</text>
</g>
<!-- 1374390224768&#45;&gt;1374390225088 -->
<g id="edge24" class="edge">
<title>1374390224768&#45;&gt;1374390225088</title>
<path fill="none" stroke="black" d="M512.48,-73.31C512.7,-65.64 512.96,-56.39 513.2,-47.74"/>
<polygon fill="black" stroke="black" points="516.69,-48.14 513.48,-38.04 509.7,-47.94 516.69,-48.14"/>
</g>
<!-- 1374390224832&#45;&gt;1374390224384 -->
<g id="edge23" class="edge">
<title>1374390224832&#45;&gt;1374390224384</title>
<path fill="none" stroke="black" d="M589,-73.31C589,-65.73 589,-56.6 589,-48.04"/>
<polygon fill="black" stroke="black" points="592.5,-48.04 589,-38.04 585.5,-48.04 592.5,-48.04"/>
</g>
<!-- 1374390224832&#45;&gt;1374390223744 -->
<g id="edge22" class="edge">
<title>1374390224832&#45;&gt;1374390223744</title>
<path fill="none" stroke="black" d="M558.07,-75.8C537.68,-66.08 510.14,-52.95 478.18,-37.55"/>
<polygon fill="black" stroke="black" points="480.01,-34.55 469.48,-33.36 476.97,-40.86 480.01,-34.55"/>
</g>
<!-- 1374390225600 -->
<g id="node18" class="node">
<title>1374390225600</title>
<path fill="lightblue" stroke="lightblue" d="M648.88,-0.5C648.88,-0.5 685.12,-0.5 685.12,-0.5 691.12,-0.5 697.12,-6.5 697.12,-12.5 697.12,-12.5 697.12,-24.5 697.12,-24.5 697.12,-30.5 691.12,-36.5 685.12,-36.5 685.12,-36.5 648.88,-36.5 648.88,-36.5 642.88,-36.5 636.88,-30.5 636.88,-24.5 636.88,-24.5 636.88,-12.5 636.88,-12.5 636.88,-6.5 642.88,-0.5 648.88,-0.5"/>
<text text-anchor="middle" x="667" y="-13.45" font-family="Times,serif" font-size="14.00">search.c</text>
</g>
<!-- 1374390224832&#45;&gt;1374390225600 -->
<g id="edge21" class="edge">
<title>1374390224832&#45;&gt;1374390225600</title>
<path fill="none" stroke="black" d="M607.88,-73.31C617.39,-64.66 629.1,-54 639.58,-44.46"/>
<polygon fill="black" stroke="black" points="641.86,-47.11 646.9,-37.79 637.15,-41.94 641.86,-47.11"/>
</g>
<!-- 1374390224896&#45;&gt;1374390223744 -->
<g id="edge28" class="edge">
<title>1374390224896&#45;&gt;1374390223744</title>
<path fill="none" stroke="black" d="M719.83,-76.25C716.9,-75.03 713.92,-73.91 711,-73 613.99,-42.72 579.79,-66.6 479.11,-37.09"/>
<polygon fill="black" stroke="black" points="480.2,-33.76 469.62,-34.19 478.16,-40.46 480.2,-33.76"/>
</g>
<!-- 1374390225408 -->
<g id="node21" class="node">
<title>1374390225408</title>
<path fill="lightblue" stroke="lightblue" d="M809,-0.5C809,-0.5 839,-0.5 839,-0.5 845,-0.5 851,-6.5 851,-12.5 851,-12.5 851,-24.5 851,-24.5 851,-30.5 845,-36.5 839,-36.5 839,-36.5 809,-36.5 809,-36.5 803,-36.5 797,-30.5 797,-24.5 797,-24.5 797,-12.5 797,-12.5 797,-6.5 803,-0.5 809,-0.5"/>
<text text-anchor="middle" x="824" y="-13.45" font-family="Times,serif" font-size="14.00">utils.c</text>
</g>
<!-- 1374390224896&#45;&gt;1374390225408 -->
<g id="edge27" class="edge">
<title>1374390224896&#45;&gt;1374390225408</title>
<path fill="none" stroke="black" d="M765.64,-73.31C775.03,-64.66 786.59,-54 796.93,-44.46"/>
<polygon fill="black" stroke="black" points="799.17,-47.15 804.15,-37.8 794.43,-42.01 799.17,-47.15"/>
</g>
<!-- 1374390224960 -->
<g id="node19" class="node">
<title>1374390224960</title>
<path fill="lightblue" stroke="lightblue" d="M532,-146.5C532,-146.5 562,-146.5 562,-146.5 568,-146.5 574,-152.5 574,-158.5 574,-158.5 574,-170.5 574,-170.5 574,-176.5 568,-182.5 562,-182.5 562,-182.5 532,-182.5 532,-182.5 526,-182.5 520,-176.5 520,-170.5 520,-170.5 520,-158.5 520,-158.5 520,-152.5 526,-146.5 532,-146.5"/>
<text text-anchor="middle" x="546.75" y="-159.45" font-family="Times,serif" font-size="14.00">clean</text>
</g>
</g>
</svg>
