<?xml version="1.0" encoding="UTF-8" standalone="no"?>
<!DOCTYPE svg PUBLIC "-//W3C//DTD SVG 1.1//EN"
 "http://www.w3.org/Graphics/SVG/1.1/DTD/svg11.dtd">
<!-- Generated by graphviz version 10.0.1 (20240210.2158)
 -->
<!-- Pages: 1 -->
<svg width="310pt" height="118pt"
 viewBox="0.00 0.00 310.38 118.00" xmlns="http://www.w3.org/2000/svg" xmlns:xlink="http://www.w3.org/1999/xlink">
<g id="graph0" class="graph" transform="scale(1 1) rotate(0) translate(4 114)">
<polygon fill="white" stroke="none" points="-4,4 -4,-114 306.38,-114 306.38,4 -4,4"/>
<!-- 1374390755648 -->
<g id="node1" class="node">
<title>1374390755648</title>
<path fill="lightblue" stroke="lightblue" d="M12,-0.5C12,-0.5 42,-0.5 42,-0.5 48,-0.5 54,-6.5 54,-12.5 54,-12.5 54,-24.5 54,-24.5 54,-30.5 48,-36.5 42,-36.5 42,-36.5 12,-36.5 12,-36.5 6,-36.5 0,-30.5 0,-24.5 0,-24.5 0,-12.5 0,-12.5 0,-6.5 6,-0.5 12,-0.5"/>
<text text-anchor="middle" x="27" y="-13.45" font-family="Times,serif" font-size="14.00">defs.h</text>
</g>
<!-- 1374390755712 -->
<g id="node2" class="node">
<title>1374390755712</title>
<path fill="lightblue" stroke="lightblue" d="M84.38,-0.5C84.38,-0.5 141.62,-0.5 141.62,-0.5 147.62,-0.5 153.62,-6.5 153.62,-12.5 153.62,-12.5 153.62,-24.5 153.62,-24.5 153.62,-30.5 147.62,-36.5 141.62,-36.5 141.62,-36.5 84.38,-36.5 84.38,-36.5 78.38,-36.5 72.38,-30.5 72.38,-24.5 72.38,-24.5 72.38,-12.5 72.38,-12.5 72.38,-6.5 78.38,-0.5 84.38,-0.5"/>
<text text-anchor="middle" x="113" y="-13.45" font-family="Times,serif" font-size="14.00">command.h</text>
</g>
<!-- 1374390756224 -->
<g id="node3" class="node">
<title>1374390756224</title>
<path fill="lightblue" stroke="lightblue" d="M184,-0.5C184,-0.5 214,-0.5 214,-0.5 220,-0.5 226,-6.5 226,-12.5 226,-12.5 226,-24.5 226,-24.5 226,-30.5 220,-36.5 214,-36.5 214,-36.5 184,-36.5 184,-36.5 178,-36.5 172,-30.5 172,-24.5 172,-24.5 172,-12.5 172,-12.5 172,-6.5 178,-0.5 184,-0.5"/>
<text text-anchor="middle" x="199" y="-13.45" font-family="Times,serif" font-size="14.00">files.c</text>
</g>
<!-- 1374390756288 -->
<g id="node4" class="node">
<title>1374390756288</title>
<path fill="lightblue" stroke="lightblue" d="M255.62,-0.5C255.62,-0.5 290.38,-0.5 290.38,-0.5 296.38,-0.5 302.38,-6.5 302.38,-12.5 302.38,-12.5 302.38,-24.5 302.38,-24.5 302.38,-30.5 296.38,-36.5 290.38,-36.5 290.38,-36.5 255.62,-36.5 255.62,-36.5 249.62,-36.5 243.62,-30.5 243.62,-24.5 243.62,-24.5 243.62,-12.5 243.62,-12.5 243.62,-6.5 249.62,-0.5 255.62,-0.5"/>
<text text-anchor="middle" x="273" y="-13.45" font-family="Times,serif" font-size="14.00">buffer.h</text>
</g>
<!-- 1374390756160 -->
<g id="node5" class="node">
<title>1374390756160</title>
<path fill="lightblue" stroke="lightblue" d="M141,-73.5C141,-73.5 171,-73.5 171,-73.5 177,-73.5 183,-79.5 183,-85.5 183,-85.5 183,-97.5 183,-97.5 183,-103.5 177,-109.5 171,-109.5 171,-109.5 141,-109.5 141,-109.5 135,-109.5 129,-103.5 129,-97.5 129,-97.5 129,-85.5 129,-85.5 129,-79.5 135,-73.5 141,-73.5"/>
<text text-anchor="middle" x="155.88" y="-86.45" font-family="Times,serif" font-size="14.00">files.o</text>
</g>
<!-- 1374390756160&#45;&gt;1374390755648 -->
<g id="edge2" class="edge">
<title>1374390756160&#45;&gt;1374390755648</title>
<path fill="none" stroke="black" d="M128.64,-75.44C109.91,-65.14 84.85,-51.34 64.3,-40.03"/>
<polygon fill="black" stroke="black" points="66.09,-37.02 55.64,-35.27 62.72,-43.15 66.09,-37.02"/>
</g>
<!-- 1374390756160&#45;&gt;1374390755712 -->
<g id="edge4" class="edge">
<title>1374390756160&#45;&gt;1374390755712</title>
<path fill="none" stroke="black" d="M145.59,-73.31C140.68,-65.2 134.7,-55.34 129.22,-46.28"/>
<polygon fill="black" stroke="black" points="132.27,-44.56 124.1,-37.82 126.28,-48.19 132.27,-44.56"/>
</g>
<!-- 1374390756160&#45;&gt;1374390756224 -->
<g id="edge1" class="edge">
<title>1374390756160&#45;&gt;1374390756224</title>
<path fill="none" stroke="black" d="M166.41,-73.31C171.32,-65.2 177.3,-55.34 182.78,-46.28"/>
<polygon fill="black" stroke="black" points="185.72,-48.19 187.9,-37.82 179.73,-44.56 185.72,-48.19"/>
</g>
<!-- 1374390756160&#45;&gt;1374390756288 -->
<g id="edge3" class="edge">
<title>1374390756160&#45;&gt;1374390756288</title>
<path fill="none" stroke="black" d="M183.43,-73.85C198.79,-64.53 218.17,-52.77 234.97,-42.58"/>
<polygon fill="black" stroke="black" points="236.49,-45.75 243.22,-37.57 232.86,-39.76 236.49,-45.75"/>
</g>
</g>
</svg>
