<?xml version="1.0" encoding="UTF-8" standalone="no"?>
<!DOCTYPE svg PUBLIC "-//W3C//DTD SVG 1.1//EN"
 "http://www.w3.org/Graphics/SVG/1.1/DTD/svg11.dtd">
<!-- Generated by graphviz version 10.0.1 (20240210.2158)
 -->
<!-- Pages: 1 -->
<svg width="297pt" height="595pt"
 viewBox="0.00 0.00 296.50 595.00" xmlns="http://www.w3.org/2000/svg" xmlns:xlink="http://www.w3.org/1999/xlink">
<g id="graph0" class="graph" transform="scale(1 1) rotate(0) translate(4 591)">
<polygon fill="white" stroke="none" points="-4,4 -4,-591 292.5,-591 292.5,4 -4,4"/>
<!-- 1374390225600 -->
<g id="node1" class="node">
<title>1374390225600</title>
<path fill="lightblue" stroke="lightblue" d="M229.75,-330.5C229.75,-330.5 266,-330.5 266,-330.5 272,-330.5 278,-336.5 278,-342.5 278,-342.5 278,-354.5 278,-354.5 278,-360.5 272,-366.5 266,-366.5 266,-366.5 229.75,-366.5 229.75,-366.5 223.75,-366.5 217.75,-360.5 217.75,-354.5 217.75,-354.5 217.75,-342.5 217.75,-342.5 217.75,-336.5 223.75,-330.5 229.75,-330.5"/>
<text text-anchor="middle" x="247.88" y="-343.7" font-family="Times,serif" font-size="14.00">search.c</text>
</g>
<!-- 1374390223552 -->
<g id="node2" class="node">
<title>1374390223552</title>
<path fill="lightblue" stroke="lightblue" d="M102,-440.5C102,-440.5 159.25,-440.5 159.25,-440.5 165.25,-440.5 171.25,-446.5 171.25,-452.5 171.25,-452.5 171.25,-464.5 171.25,-464.5 171.25,-470.5 165.25,-476.5 159.25,-476.5 159.25,-476.5 102,-476.5 102,-476.5 96,-476.5 90,-470.5 90,-464.5 90,-464.5 90,-452.5 90,-452.5 90,-446.5 96,-440.5 102,-440.5"/>
<text text-anchor="middle" x="130.62" y="-453.7" font-family="Times,serif" font-size="14.00">command.o</text>
</g>
<!-- 1374390223680 -->
<g id="node3" class="node">
<title>1374390223680</title>
<path fill="lightblue" stroke="lightblue" d="M219.62,-550.5C219.62,-550.5 276.12,-550.5 276.12,-550.5 282.12,-550.5 288.12,-556.5 288.12,-562.5 288.12,-562.5 288.12,-574.5 288.12,-574.5 288.12,-580.5 282.12,-586.5 276.12,-586.5 276.12,-586.5 219.62,-586.5 219.62,-586.5 213.62,-586.5 207.62,-580.5 207.62,-574.5 207.62,-574.5 207.62,-562.5 207.62,-562.5 207.62,-556.5 213.62,-550.5 219.62,-550.5"/>
<text text-anchor="middle" x="247.88" y="-563.7" font-family="Times,serif" font-size="14.00">command.c</text>
</g>
<!-- 1374390223552&#45;&gt;1374390223680 -->
<g id="edge1" class="edge">
<title>1374390223552&#45;&gt;1374390223680</title>
<path fill="none" stroke="black" d="M146.16,-476.8C160.64,-494.42 183.99,-521.31 207.25,-541.5 207.89,-542.05 208.53,-542.6 209.19,-543.15"/>
<polygon fill="black" stroke="black" points="206.9,-545.8 216.94,-549.17 211.19,-540.27 206.9,-545.8"/>
</g>
<!-- 1374390223744 -->
<g id="node4" class="node">
<title>1374390223744</title>
<path fill="lightgreen" stroke="lightgreen" d="M232.88,-220.5C232.88,-220.5 262.88,-220.5 262.88,-220.5 268.88,-220.5 274.88,-226.5 274.88,-232.5 274.88,-232.5 274.88,-244.5 274.88,-244.5 274.88,-250.5 268.88,-256.5 262.88,-256.5 262.88,-256.5 232.88,-256.5 232.88,-256.5 226.88,-256.5 220.88,-250.5 220.88,-244.5 220.88,-244.5 220.88,-232.5 220.88,-232.5 220.88,-226.5 226.88,-220.5 232.88,-220.5"/>
<text text-anchor="middle" x="247.88" y="-233.7" font-family="Times,serif" font-size="14.00">defs.h</text>
</g>
<!-- 1374390223552&#45;&gt;1374390223744 -->
<g id="edge2" class="edge">
<title>1374390223552&#45;&gt;1374390223744</title>
<path fill="none" stroke="black" d="M163.55,-440.21C166.46,-437.58 169.11,-434.67 171.25,-431.5 213.24,-369.29 165.79,-329.07 207.25,-266.5 208.65,-264.39 210.27,-262.39 212.03,-260.5"/>
<polygon fill="black" stroke="black" points="214.23,-263.23 219.36,-253.96 209.57,-258.01 214.23,-263.23"/>
</g>
<!-- 1374390223808 -->
<g id="node5" class="node">
<title>1374390223808</title>
<path fill="lightgreen" stroke="lightgreen" d="M219.25,-440.5C219.25,-440.5 276.5,-440.5 276.5,-440.5 282.5,-440.5 288.5,-446.5 288.5,-452.5 288.5,-452.5 288.5,-464.5 288.5,-464.5 288.5,-470.5 282.5,-476.5 276.5,-476.5 276.5,-476.5 219.25,-476.5 219.25,-476.5 213.25,-476.5 207.25,-470.5 207.25,-464.5 207.25,-464.5 207.25,-452.5 207.25,-452.5 207.25,-446.5 213.25,-440.5 219.25,-440.5"/>
<text text-anchor="middle" x="247.88" y="-453.7" font-family="Times,serif" font-size="14.00">command.h</text>
</g>
<!-- 1374390223552&#45;&gt;1374390223808 -->
<g id="edge3" class="edge">
<title>1374390223552&#45;&gt;1374390223808</title>
<path fill="none" stroke="black" d="M171.61,-458.5C179.39,-458.5 187.64,-458.5 195.72,-458.5"/>
<polygon fill="black" stroke="black" points="195.45,-462 205.45,-458.5 195.45,-455 195.45,-462"/>
</g>
<!-- 1374390223936 -->
<g id="node6" class="node">
<title>1374390223936</title>
<path fill="lightblue" stroke="lightblue" d="M115.62,-385.5C115.62,-385.5 145.62,-385.5 145.62,-385.5 151.62,-385.5 157.62,-391.5 157.62,-397.5 157.62,-397.5 157.62,-409.5 157.62,-409.5 157.62,-415.5 151.62,-421.5 145.62,-421.5 145.62,-421.5 115.62,-421.5 115.62,-421.5 109.62,-421.5 103.62,-415.5 103.62,-409.5 103.62,-409.5 103.62,-397.5 103.62,-397.5 103.62,-391.5 109.62,-385.5 115.62,-385.5"/>
<text text-anchor="middle" x="130.62" y="-398.7" font-family="Times,serif" font-size="14.00">kbd.o</text>
</g>
<!-- 1374390223936&#45;&gt;1374390223744 -->
<g id="edge5" class="edge">
<title>1374390223936&#45;&gt;1374390223744</title>
<path fill="none" stroke="black" d="M158.03,-389.13C162.94,-385.52 167.65,-381.29 171.25,-376.5 202.15,-335.38 176.7,-307.88 207.25,-266.5 208.71,-264.52 210.36,-262.62 212.13,-260.82"/>
<polygon fill="black" stroke="black" points="214.1,-263.75 219.33,-254.53 209.5,-258.47 214.1,-263.75"/>
</g>
<!-- 1374390223936&#45;&gt;1374390223808 -->
<g id="edge6" class="edge">
<title>1374390223936&#45;&gt;1374390223808</title>
<path fill="none" stroke="black" d="M158.07,-416.12C169.93,-421.78 184.31,-428.64 198.02,-435.19"/>
<polygon fill="black" stroke="black" points="196.42,-438.3 206.95,-439.45 199.43,-431.98 196.42,-438.3"/>
</g>
<!-- 1374390224064 -->
<g id="node7" class="node">
<title>1374390224064</title>
<path fill="lightblue" stroke="lightblue" d="M232.88,-495.5C232.88,-495.5 262.88,-495.5 262.88,-495.5 268.88,-495.5 274.88,-501.5 274.88,-507.5 274.88,-507.5 274.88,-519.5 274.88,-519.5 274.88,-525.5 268.88,-531.5 262.88,-531.5 262.88,-531.5 232.88,-531.5 232.88,-531.5 226.88,-531.5 220.88,-525.5 220.88,-519.5 220.88,-519.5 220.88,-507.5 220.88,-507.5 220.88,-501.5 226.88,-495.5 232.88,-495.5"/>
<text text-anchor="middle" x="247.88" y="-508.7" font-family="Times,serif" font-size="14.00">kbd.c</text>
</g>
<!-- 1374390223936&#45;&gt;1374390224064 -->
<g id="edge4" class="edge">
<title>1374390223936&#45;&gt;1374390224064</title>
<path fill="none" stroke="black" d="M157.91,-419.95C162.61,-423.47 167.27,-427.38 171.25,-431.5 191.54,-452.52 186.78,-465.65 207.25,-486.5 208.61,-487.89 210.06,-489.25 211.56,-490.57"/>
<polygon fill="black" stroke="black" points="209.38,-493.31 219.38,-496.8 213.73,-487.83 209.38,-493.31"/>
</g>
<!-- 1374390224256 -->
<g id="node8" class="node">
<title>1374390224256</title>
<path fill="lightgreen" stroke="lightgreen" d="M115.62,-330.5C115.62,-330.5 145.62,-330.5 145.62,-330.5 151.62,-330.5 157.62,-336.5 157.62,-342.5 157.62,-342.5 157.62,-354.5 157.62,-354.5 157.62,-360.5 151.62,-366.5 145.62,-366.5 145.62,-366.5 115.62,-366.5 115.62,-366.5 109.62,-366.5 103.62,-360.5 103.62,-354.5 103.62,-354.5 103.62,-342.5 103.62,-342.5 103.62,-336.5 109.62,-330.5 115.62,-330.5"/>
<text text-anchor="middle" x="130.62" y="-343.7" font-family="Times,serif" font-size="14.00">files.o</text>
</g>
<!-- 1374390224256&#45;&gt;1374390223744 -->
<g id="edge8" class="edge">
<title>1374390224256&#45;&gt;1374390223744</title>
<path fill="none" stroke="black" d="M157.93,-332.74C162.63,-329.34 167.28,-325.54 171.25,-321.5 191.72,-300.65 186.96,-287.52 207.25,-266.5 208.74,-264.95 210.33,-263.44 211.98,-261.96"/>
<polygon fill="black" stroke="black" points="213.87,-264.94 219.41,-255.91 209.45,-259.51 213.87,-264.94"/>
</g>
<!-- 1374390224256&#45;&gt;1374390223808 -->
<g id="edge10" class="edge">
<title>1374390224256&#45;&gt;1374390223808</title>
<path fill="none" stroke="black" d="M157.91,-364.95C162.61,-368.47 167.27,-372.38 171.25,-376.5 191.54,-397.52 186.78,-410.65 207.25,-431.5 207.72,-431.98 208.21,-432.46 208.7,-432.94"/>
<polygon fill="black" stroke="black" points="206.25,-435.44 216.12,-439.29 210.8,-430.13 206.25,-435.44"/>
</g>
<!-- 1374390224320 -->
<g id="node9" class="node">
<title>1374390224320</title>
<path fill="lightgreen" stroke="lightgreen" d="M232.88,-385.5C232.88,-385.5 262.88,-385.5 262.88,-385.5 268.88,-385.5 274.88,-391.5 274.88,-397.5 274.88,-397.5 274.88,-409.5 274.88,-409.5 274.88,-415.5 268.88,-421.5 262.88,-421.5 262.88,-421.5 232.88,-421.5 232.88,-421.5 226.88,-421.5 220.88,-415.5 220.88,-409.5 220.88,-409.5 220.88,-397.5 220.88,-397.5 220.88,-391.5 226.88,-385.5 232.88,-385.5"/>
<text text-anchor="middle" x="247.88" y="-398.7" font-family="Times,serif" font-size="14.00">files.c</text>
</g>
<!-- 1374390224256&#45;&gt;1374390224320 -->
<g id="edge7" class="edge">
<title>1374390224256&#45;&gt;1374390224320</title>
<path fill="none" stroke="black" d="M158.07,-361.12C173.59,-368.52 193.42,-377.99 210.41,-386.1"/>
<polygon fill="black" stroke="black" points="208.66,-389.14 219.19,-390.29 211.67,-382.82 208.66,-389.14"/>
</g>
<!-- 1374390224384 -->
<g id="node10" class="node">
<title>1374390224384</title>
<path fill="lightgreen" stroke="lightgreen" d="M230.5,-275.5C230.5,-275.5 265.25,-275.5 265.25,-275.5 271.25,-275.5 277.25,-281.5 277.25,-287.5 277.25,-287.5 277.25,-299.5 277.25,-299.5 277.25,-305.5 271.25,-311.5 265.25,-311.5 265.25,-311.5 230.5,-311.5 230.5,-311.5 224.5,-311.5 218.5,-305.5 218.5,-299.5 218.5,-299.5 218.5,-287.5 218.5,-287.5 218.5,-281.5 224.5,-275.5 230.5,-275.5"/>
<text text-anchor="middle" x="247.88" y="-288.7" font-family="Times,serif" font-size="14.00">buffer.h</text>
</g>
<!-- 1374390224256&#45;&gt;1374390224384 -->
<g id="edge9" class="edge">
<title>1374390224256&#45;&gt;1374390224384</title>
<path fill="none" stroke="black" d="M158.07,-335.88C172.78,-328.86 191.39,-319.98 207.76,-312.17"/>
<polygon fill="black" stroke="black" points="209.25,-315.33 216.77,-307.87 206.24,-309.02 209.25,-315.33"/>
</g>
<!-- 1374390224768 -->
<g id="node11" class="node">
<title>1374390224768</title>
<path fill="lightblue" stroke="lightblue" d="M114.38,-220.5C114.38,-220.5 146.88,-220.5 146.88,-220.5 152.88,-220.5 158.88,-226.5 158.88,-232.5 158.88,-232.5 158.88,-244.5 158.88,-244.5 158.88,-250.5 152.88,-256.5 146.88,-256.5 146.88,-256.5 114.38,-256.5 114.38,-256.5 108.38,-256.5 102.38,-250.5 102.38,-244.5 102.38,-244.5 102.38,-232.5 102.38,-232.5 102.38,-226.5 108.38,-220.5 114.38,-220.5"/>
<text text-anchor="middle" x="130.62" y="-233.7" font-family="Times,serif" font-size="14.00">insert.o</text>
</g>
<!-- 1374390224768&#45;&gt;1374390223744 -->
<g id="edge12" class="edge">
<title>1374390224768&#45;&gt;1374390223744</title>
<path fill="none" stroke="black" d="M159.23,-238.5C174.23,-238.5 193.01,-238.5 209.32,-238.5"/>
<polygon fill="black" stroke="black" points="209.17,-242 219.17,-238.5 209.17,-235 209.17,-242"/>
</g>
<!-- 1374390224768&#45;&gt;1374390224384 -->
<g id="edge13" class="edge">
<title>1374390224768&#45;&gt;1374390224384</title>
<path fill="none" stroke="black" d="M159.23,-251.67C173.87,-258.66 192.1,-267.36 208.13,-275.01"/>
<polygon fill="black" stroke="black" points="206.39,-278.06 216.93,-279.21 209.41,-271.74 206.39,-278.06"/>
</g>
<!-- 1374390225088 -->
<g id="node12" class="node">
<title>1374390225088</title>
<path fill="lightblue" stroke="lightblue" d="M232,-165.5C232,-165.5 263.75,-165.5 263.75,-165.5 269.75,-165.5 275.75,-171.5 275.75,-177.5 275.75,-177.5 275.75,-189.5 275.75,-189.5 275.75,-195.5 269.75,-201.5 263.75,-201.5 263.75,-201.5 232,-201.5 232,-201.5 226,-201.5 220,-195.5 220,-189.5 220,-189.5 220,-177.5 220,-177.5 220,-171.5 226,-165.5 232,-165.5"/>
<text text-anchor="middle" x="247.88" y="-178.7" font-family="Times,serif" font-size="14.00">insert.c</text>
</g>
<!-- 1374390224768&#45;&gt;1374390225088 -->
<g id="edge11" class="edge">
<title>1374390224768&#45;&gt;1374390225088</title>
<path fill="none" stroke="black" d="M159.23,-225.33C174.31,-218.13 193.19,-209.12 209.56,-201.31"/>
<polygon fill="black" stroke="black" points="211.01,-204.49 218.53,-197.03 207.99,-198.18 211.01,-204.49"/>
</g>
<!-- 1374390224832 -->
<g id="node13" class="node">
<title>1374390224832</title>
<path fill="lightblue" stroke="lightblue" d="M112.12,-275.5C112.12,-275.5 149.12,-275.5 149.12,-275.5 155.12,-275.5 161.12,-281.5 161.12,-287.5 161.12,-287.5 161.12,-299.5 161.12,-299.5 161.12,-305.5 155.12,-311.5 149.12,-311.5 149.12,-311.5 112.12,-311.5 112.12,-311.5 106.12,-311.5 100.12,-305.5 100.12,-299.5 100.12,-299.5 100.12,-287.5 100.12,-287.5 100.12,-281.5 106.12,-275.5 112.12,-275.5"/>
<text text-anchor="middle" x="130.62" y="-288.7" font-family="Times,serif" font-size="14.00">search.o</text>
</g>
<!-- 1374390224832&#45;&gt;1374390225600 -->
<g id="edge14" class="edge">
<title>1374390224832&#45;&gt;1374390225600</title>
<path fill="none" stroke="black" d="M161.6,-307.81C175.59,-314.48 192.41,-322.51 207.41,-329.67"/>
<polygon fill="black" stroke="black" points="205.55,-332.65 216.08,-333.8 208.56,-326.34 205.55,-332.65"/>
</g>
<!-- 1374390224832&#45;&gt;1374390223744 -->
<g id="edge15" class="edge">
<title>1374390224832&#45;&gt;1374390223744</title>
<path fill="none" stroke="black" d="M161.6,-279.19C176.6,-272.04 194.86,-263.32 210.63,-255.8"/>
<polygon fill="black" stroke="black" points="211.69,-259.17 219.21,-251.7 208.68,-252.85 211.69,-259.17"/>
</g>
<!-- 1374390224832&#45;&gt;1374390224384 -->
<g id="edge16" class="edge">
<title>1374390224832&#45;&gt;1374390224384</title>
<path fill="none" stroke="black" d="M161.6,-293.5C175.39,-293.5 191.95,-293.5 206.79,-293.5"/>
<polygon fill="black" stroke="black" points="206.72,-297 216.72,-293.5 206.72,-290 206.72,-297"/>
</g>
<!-- 1374390224512 -->
<g id="node14" class="node">
<title>1374390224512</title>
<path fill="lightblue" stroke="lightblue" d="M12,-247.5C12,-247.5 42,-247.5 42,-247.5 48,-247.5 54,-253.5 54,-259.5 54,-259.5 54,-271.5 54,-271.5 54,-277.5 48,-283.5 42,-283.5 42,-283.5 12,-283.5 12,-283.5 6,-283.5 0,-277.5 0,-271.5 0,-271.5 0,-259.5 0,-259.5 0,-253.5 6,-247.5 12,-247.5"/>
<text text-anchor="middle" x="27" y="-260.7" font-family="Times,serif" font-size="14.00">edit</text>
</g>
<!-- 1374390224512&#45;&gt;1374390223552 -->
<g id="edge19" class="edge">
<title>1374390224512&#45;&gt;1374390223552</title>
<path fill="none" stroke="black" d="M47.28,-283.79C49.8,-286.84 52.15,-290.13 54,-293.5 84.49,-349.07 53.48,-379.69 90,-431.5 90.07,-431.6 90.14,-431.7 90.21,-431.79"/>
<polygon fill="black" stroke="black" points="87.48,-433.99 96.81,-439 92.64,-429.26 87.48,-433.99"/>
</g>
<!-- 1374390224512&#45;&gt;1374390223936 -->
<g id="edge18" class="edge">
<title>1374390224512&#45;&gt;1374390223936</title>
<path fill="none" stroke="black" d="M46.56,-283.75C49.24,-286.86 51.82,-290.17 54,-293.5 76,-327.16 64.38,-345.51 90,-376.5 91.39,-378.18 92.92,-379.81 94.53,-381.36"/>
<polygon fill="black" stroke="black" points="92.07,-383.87 101.99,-387.59 96.56,-378.5 92.07,-383.87"/>
</g>
<!-- 1374390224512&#45;&gt;1374390224256 -->
<g id="edge23" class="edge">
<title>1374390224512&#45;&gt;1374390224256</title>
<path fill="none" stroke="black" d="M46.95,-283.86C58.94,-295.15 74.95,-309.67 90,-321.5 91.31,-322.53 92.65,-323.56 94.02,-324.59"/>
<polygon fill="black" stroke="black" points="91.88,-327.36 102.03,-330.39 95.98,-321.69 91.88,-327.36"/>
</g>
<!-- 1374390224512&#45;&gt;1374390224768 -->
<g id="edge21" class="edge">
<title>1374390224512&#45;&gt;1374390224768</title>
<path fill="none" stroke="black" d="M54.44,-258.48C65.6,-255.51 78.83,-252 91.05,-248.75"/>
<polygon fill="black" stroke="black" points="91.67,-252.2 100.44,-246.25 89.88,-245.44 91.67,-252.2"/>
</g>
<!-- 1374390224512&#45;&gt;1374390224832 -->
<g id="edge22" class="edge">
<title>1374390224512&#45;&gt;1374390224832</title>
<path fill="none" stroke="black" d="M54.44,-272.78C64.95,-275.68 77.3,-279.08 88.91,-282.28"/>
<polygon fill="black" stroke="black" points="87.7,-285.58 98.27,-284.86 89.56,-278.83 87.7,-285.58"/>
</g>
<!-- 1374390224576 -->
<g id="node15" class="node">
<title>1374390224576</title>
<path fill="lightblue" stroke="lightblue" d="M115.5,-110.5C115.5,-110.5 145.75,-110.5 145.75,-110.5 151.75,-110.5 157.75,-116.5 157.75,-122.5 157.75,-122.5 157.75,-134.5 157.75,-134.5 157.75,-140.5 151.75,-146.5 145.75,-146.5 145.75,-146.5 115.5,-146.5 115.5,-146.5 109.5,-146.5 103.5,-140.5 103.5,-134.5 103.5,-134.5 103.5,-122.5 103.5,-122.5 103.5,-116.5 109.5,-110.5 115.5,-110.5"/>
<text text-anchor="middle" x="130.62" y="-123.7" font-family="Times,serif" font-size="14.00">main.o</text>
</g>
<!-- 1374390224512&#45;&gt;1374390224576 -->
<g id="edge17" class="edge">
<title>1374390224512&#45;&gt;1374390224576</title>
<path fill="none" stroke="black" d="M35.35,-247.36C45.28,-224.37 64.7,-184.4 90,-156.5 91.44,-154.91 92.99,-153.36 94.61,-151.85"/>
<polygon fill="black" stroke="black" points="96.52,-154.82 101.96,-145.73 92.04,-149.44 96.52,-154.82"/>
</g>
<!-- 1374390224704 -->
<g id="node16" class="node">
<title>1374390224704</title>
<path fill="lightblue" stroke="lightblue" d="M110.25,-165.5C110.25,-165.5 151,-165.5 151,-165.5 157,-165.5 163,-171.5 163,-177.5 163,-177.5 163,-189.5 163,-189.5 163,-195.5 157,-201.5 151,-201.5 151,-201.5 110.25,-201.5 110.25,-201.5 104.25,-201.5 98.25,-195.5 98.25,-189.5 98.25,-189.5 98.25,-177.5 98.25,-177.5 98.25,-171.5 104.25,-165.5 110.25,-165.5"/>
<text text-anchor="middle" x="130.62" y="-178.7" font-family="Times,serif" font-size="14.00">display.o</text>
</g>
<!-- 1374390224512&#45;&gt;1374390224704 -->
<g id="edge20" class="edge">
<title>1374390224512&#45;&gt;1374390224704</title>
<path fill="none" stroke="black" d="M47.95,-247.21C59.89,-236.5 75.52,-222.87 90,-211.5 91.28,-210.49 92.6,-209.48 93.94,-208.46"/>
<polygon fill="black" stroke="black" points="95.75,-211.47 101.71,-202.71 91.59,-205.84 95.75,-211.47"/>
</g>
<!-- 1374390224896 -->
<g id="node17" class="node">
<title>1374390224896</title>
<path fill="lightblue" stroke="lightblue" d="M115.62,-55.5C115.62,-55.5 145.62,-55.5 145.62,-55.5 151.62,-55.5 157.62,-61.5 157.62,-67.5 157.62,-67.5 157.62,-79.5 157.62,-79.5 157.62,-85.5 151.62,-91.5 145.62,-91.5 145.62,-91.5 115.62,-91.5 115.62,-91.5 109.62,-91.5 103.62,-85.5 103.62,-79.5 103.62,-79.5 103.62,-67.5 103.62,-67.5 103.62,-61.5 109.62,-55.5 115.62,-55.5"/>
<text text-anchor="middle" x="130.62" y="-68.7" font-family="Times,serif" font-size="14.00">utils.o</text>
</g>
<!-- 1374390224512&#45;&gt;1374390224896 -->
<g id="edge24" class="edge">
<title>1374390224512&#45;&gt;1374390224896</title>
<path fill="none" stroke="black" d="M31.28,-247.03C37.78,-214.71 54.79,-147 90,-101.5 91.51,-99.55 93.19,-97.68 94.98,-95.9"/>
<polygon fill="black" stroke="black" points="96.95,-98.83 102.24,-89.65 92.38,-93.52 96.95,-98.83"/>
</g>
<!-- 1374390224576&#45;&gt;1374390223744 -->
<g id="edge31" class="edge">
<title>1374390224576&#45;&gt;1374390223744</title>
<path fill="none" stroke="black" d="M157.91,-144.95C162.61,-148.47 167.27,-152.38 171.25,-156.5 191.54,-177.52 186.78,-190.65 207.25,-211.5 208.61,-212.89 210.06,-214.25 211.56,-215.57"/>
<polygon fill="black" stroke="black" points="209.38,-218.31 219.38,-221.8 213.73,-212.83 209.38,-218.31"/>
</g>
<!-- 1374390225472 -->
<g id="node20" class="node">
<title>1374390225472</title>
<path fill="lightblue" stroke="lightblue" d="M232.88,-55.5C232.88,-55.5 262.88,-55.5 262.88,-55.5 268.88,-55.5 274.88,-61.5 274.88,-67.5 274.88,-67.5 274.88,-79.5 274.88,-79.5 274.88,-85.5 268.88,-91.5 262.88,-91.5 262.88,-91.5 232.88,-91.5 232.88,-91.5 226.88,-91.5 220.88,-85.5 220.88,-79.5 220.88,-79.5 220.88,-67.5 220.88,-67.5 220.88,-61.5 226.88,-55.5 232.88,-55.5"/>
<text text-anchor="middle" x="247.88" y="-68.7" font-family="Times,serif" font-size="14.00">main.c</text>
</g>
<!-- 1374390224576&#45;&gt;1374390225472 -->
<g id="edge30" class="edge">
<title>1374390224576&#45;&gt;1374390225472</title>
<path fill="none" stroke="black" d="M158.07,-115.88C173.59,-108.48 193.42,-99.01 210.41,-90.9"/>
<polygon fill="black" stroke="black" points="211.67,-94.18 219.19,-86.71 208.66,-87.86 211.67,-94.18"/>
</g>
<!-- 1374390224704&#45;&gt;1374390223744 -->
<g id="edge26" class="edge">
<title>1374390224704&#45;&gt;1374390223744</title>
<path fill="none" stroke="black" d="M163.42,-198.67C178.04,-205.65 195.45,-213.96 210.58,-221.18"/>
<polygon fill="black" stroke="black" points="208.73,-224.17 219.26,-225.32 211.74,-217.86 208.73,-224.17"/>
</g>
<!-- 1374390224704&#45;&gt;1374390224384 -->
<g id="edge27" class="edge">
<title>1374390224704&#45;&gt;1374390224384</title>
<path fill="none" stroke="black" d="M160.39,-201.85C164.24,-204.86 167.97,-208.11 171.25,-211.5 191.54,-232.52 186.78,-245.65 207.25,-266.5 207.96,-267.23 208.7,-267.95 209.46,-268.66"/>
<polygon fill="black" stroke="black" points="207.02,-271.18 216.93,-274.93 211.52,-265.82 207.02,-271.18"/>
</g>
<!-- 1374390225280 -->
<g id="node18" class="node">
<title>1374390225280</title>
<path fill="lightblue" stroke="lightblue" d="M227.88,-110.5C227.88,-110.5 267.88,-110.5 267.88,-110.5 273.88,-110.5 279.88,-116.5 279.88,-122.5 279.88,-122.5 279.88,-134.5 279.88,-134.5 279.88,-140.5 273.88,-146.5 267.88,-146.5 267.88,-146.5 227.88,-146.5 227.88,-146.5 221.88,-146.5 215.88,-140.5 215.88,-134.5 215.88,-134.5 215.88,-122.5 215.88,-122.5 215.88,-116.5 221.88,-110.5 227.88,-110.5"/>
<text text-anchor="middle" x="247.88" y="-123.7" font-family="Times,serif" font-size="14.00">display.c</text>
</g>
<!-- 1374390224704&#45;&gt;1374390225280 -->
<g id="edge25" class="edge">
<title>1374390224704&#45;&gt;1374390225280</title>
<path fill="none" stroke="black" d="M163.42,-168.33C176.38,-162.14 191.53,-154.91 205.34,-148.32"/>
<polygon fill="black" stroke="black" points="206.7,-151.55 214.21,-144.09 203.68,-145.23 206.7,-151.55"/>
</g>
<!-- 1374390224896&#45;&gt;1374390223744 -->
<g id="edge29" class="edge">
<title>1374390224896&#45;&gt;1374390223744</title>
<path fill="none" stroke="black" d="M158.03,-88.54C162.94,-92.27 167.65,-96.62 171.25,-101.5 201.8,-142.88 176.35,-170.38 207.25,-211.5 208.6,-213.3 210.11,-215.01 211.72,-216.65"/>
<polygon fill="black" stroke="black" points="209.45,-219.31 219.32,-223.15 213.99,-213.99 209.45,-219.31"/>
</g>
<!-- 1374390225408 -->
<g id="node19" class="node">
<title>1374390225408</title>
<path fill="lightblue" stroke="lightblue" d="M232.88,-0.5C232.88,-0.5 262.88,-0.5 262.88,-0.5 268.88,-0.5 274.88,-6.5 274.88,-12.5 274.88,-12.5 274.88,-24.5 274.88,-24.5 274.88,-30.5 268.88,-36.5 262.88,-36.5 262.88,-36.5 232.88,-36.5 232.88,-36.5 226.88,-36.5 220.88,-30.5 220.88,-24.5 220.88,-24.5 220.88,-12.5 220.88,-12.5 220.88,-6.5 226.88,-0.5 232.88,-0.5"/>
<text text-anchor="middle" x="247.88" y="-13.7" font-family="Times,serif" font-size="14.00">utils.c</text>
</g>
<!-- 1374390224896&#45;&gt;1374390225408 -->
<g id="edge28" class="edge">
<title>1374390224896&#45;&gt;1374390225408</title>
<path fill="none" stroke="black" d="M158.07,-60.88C173.59,-53.48 193.42,-44.01 210.41,-35.9"/>
<polygon fill="black" stroke="black" points="211.67,-39.18 219.19,-31.71 208.66,-32.86 211.67,-39.18"/>
</g>
<!-- 1374390224960 -->
<g id="node21" class="node">
<title>1374390224960</title>
<path fill="lightblue" stroke="lightblue" d="M12,-302.5C12,-302.5 42,-302.5 42,-302.5 48,-302.5 54,-308.5 54,-314.5 54,-314.5 54,-326.5 54,-326.5 54,-332.5 48,-338.5 42,-338.5 42,-338.5 12,-338.5 12,-338.5 6,-338.5 0,-332.5 0,-326.5 0,-326.5 0,-314.5 0,-314.5 0,-308.5 6,-302.5 12,-302.5"/>
<text text-anchor="middle" x="27" y="-315.7" font-family="Times,serif" font-size="14.00">clean</text>
</g>
</g>
</svg>
