<?xml version="1.0" encoding="UTF-8" standalone="no"?>
<!DOCTYPE svg PUBLIC "-//W3C//DTD SVG 1.1//EN"
 "http://www.w3.org/Graphics/SVG/1.1/DTD/svg11.dtd">
<!-- Generated by graphviz version 10.0.1 (20240210.2158)
 -->
<!-- Pages: 1 -->
<svg width="179pt" height="210pt"
 viewBox="0.00 0.00 179.25 210.00" xmlns="http://www.w3.org/2000/svg" xmlns:xlink="http://www.w3.org/1999/xlink">
<g id="graph0" class="graph" transform="scale(1 1) rotate(0) translate(4 206)">
<polygon fill="white" stroke="none" points="-4,4 -4,-206 175.25,-206 175.25,4 -4,4"/>
<!-- 1374390617472 -->
<g id="node1" class="node">
<title>1374390617472</title>
<path fill="lightblue" stroke="lightblue" d="M12,-82.5C12,-82.5 42,-82.5 42,-82.5 48,-82.5 54,-88.5 54,-94.5 54,-94.5 54,-106.5 54,-106.5 54,-112.5 48,-118.5 42,-118.5 42,-118.5 12,-118.5 12,-118.5 6,-118.5 0,-112.5 0,-106.5 0,-106.5 0,-94.5 0,-94.5 0,-88.5 6,-82.5 12,-82.5"/>
<text text-anchor="middle" x="27" y="-95.7" font-family="Times,serif" font-size="14.00">files.o</text>
</g>
<!-- 1374390617536 -->
<g id="node2" class="node">
<title>1374390617536</title>
<path fill="lightblue" stroke="lightblue" d="M115.62,-165.5C115.62,-165.5 145.62,-165.5 145.62,-165.5 151.62,-165.5 157.62,-171.5 157.62,-177.5 157.62,-177.5 157.62,-189.5 157.62,-189.5 157.62,-195.5 151.62,-201.5 145.62,-201.5 145.62,-201.5 115.62,-201.5 115.62,-201.5 109.62,-201.5 103.62,-195.5 103.62,-189.5 103.62,-189.5 103.62,-177.5 103.62,-177.5 103.62,-171.5 109.62,-165.5 115.62,-165.5"/>
<text text-anchor="middle" x="130.62" y="-178.7" font-family="Times,serif" font-size="14.00">files.c</text>
</g>
<!-- 1374390617472&#45;&gt;1374390617536 -->
<g id="edge1" class="edge">
<title>1374390617472&#45;&gt;1374390617536</title>
<path fill="none" stroke="black" d="M46.95,-118.86C58.94,-130.15 74.95,-144.67 90,-156.5 91.31,-157.53 92.65,-158.56 94.02,-159.59"/>
<polygon fill="black" stroke="black" points="91.88,-162.36 102.03,-165.39 95.98,-156.69 91.88,-162.36"/>
</g>
<!-- 1374390616960 -->
<g id="node3" class="node">
<title>1374390616960</title>
<path fill="lightblue" stroke="lightblue" d="M115.62,-110.5C115.62,-110.5 145.62,-110.5 145.62,-110.5 151.62,-110.5 157.62,-116.5 157.62,-122.5 157.62,-122.5 157.62,-134.5 157.62,-134.5 157.62,-140.5 151.62,-146.5 145.62,-146.5 145.62,-146.5 115.62,-146.5 115.62,-146.5 109.62,-146.5 103.62,-140.5 103.62,-134.5 103.62,-134.5 103.62,-122.5 103.62,-122.5 103.62,-116.5 109.62,-110.5 115.62,-110.5"/>
<text text-anchor="middle" x="130.62" y="-123.7" font-family="Times,serif" font-size="14.00">defs.h</text>
</g>
<!-- 1374390617472&#45;&gt;1374390616960 -->
<g id="edge2" class="edge">
<title>1374390617472&#45;&gt;1374390616960</title>
<path fill="none" stroke="black" d="M54.44,-107.78C65.96,-110.96 79.68,-114.74 92.23,-118.2"/>
<polygon fill="black" stroke="black" points="91.29,-121.57 101.86,-120.85 93.15,-114.82 91.29,-121.57"/>
</g>
<!-- 1374390617600 -->
<g id="node4" class="node">
<title>1374390617600</title>
<path fill="lightblue" stroke="lightblue" d="M113.25,-55.5C113.25,-55.5 148,-55.5 148,-55.5 154,-55.5 160,-61.5 160,-67.5 160,-67.5 160,-79.5 160,-79.5 160,-85.5 154,-91.5 148,-91.5 148,-91.5 113.25,-91.5 113.25,-91.5 107.25,-91.5 101.25,-85.5 101.25,-79.5 101.25,-79.5 101.25,-67.5 101.25,-67.5 101.25,-61.5 107.25,-55.5 113.25,-55.5"/>
<text text-anchor="middle" x="130.62" y="-68.7" font-family="Times,serif" font-size="14.00">buffer.h</text>
</g>
<!-- 1374390617472&#45;&gt;1374390617600 -->
<g id="edge3" class="edge">
<title>1374390617472&#45;&gt;1374390617600</title>
<path fill="none" stroke="black" d="M54.44,-93.48C65.22,-90.61 77.93,-87.24 89.79,-84.08"/>
<polygon fill="black" stroke="black" points="90.59,-87.49 99.36,-81.54 88.8,-80.73 90.59,-87.49"/>
</g>
<!-- 1374390617024 -->
<g id="node5" class="node">
<title>1374390617024</title>
<path fill="lightblue" stroke="lightblue" d="M102,-0.5C102,-0.5 159.25,-0.5 159.25,-0.5 165.25,-0.5 171.25,-6.5 171.25,-12.5 171.25,-12.5 171.25,-24.5 171.25,-24.5 171.25,-30.5 165.25,-36.5 159.25,-36.5 159.25,-36.5 102,-36.5 102,-36.5 96,-36.5 90,-30.5 90,-24.5 90,-24.5 90,-12.5 90,-12.5 90,-6.5 96,-0.5 102,-0.5"/>
<text text-anchor="middle" x="130.62" y="-13.7" font-family="Times,serif" font-size="14.00">command.h</text>
</g>
<!-- 1374390617472&#45;&gt;1374390617024 -->
<g id="edge4" class="edge">
<title>1374390617472&#45;&gt;1374390617024</title>
<path fill="none" stroke="black" d="M47.95,-82.21C59.89,-71.5 75.52,-57.87 90,-46.5 91.28,-45.49 92.6,-44.48 93.94,-43.46"/>
<polygon fill="black" stroke="black" points="95.75,-46.47 101.71,-37.71 91.59,-40.84 95.75,-46.47"/>
</g>
</g>
</svg>
