<?xml version="1.0" encoding="UTF-8" standalone="no"?>
<!DOCTYPE svg PUBLIC "-//W3C//DTD SVG 1.1//EN"
 "http://www.w3.org/Graphics/SVG/1.1/DTD/svg11.dtd">
<!-- Generated by graphviz version 10.0.1 (20240210.2158)
 -->
<!-- Pages: 1 -->
<svg width="858pt" height="191pt"
 viewBox="0.00 0.00 858.00 191.00" xmlns="http://www.w3.org/2000/svg" xmlns:xlink="http://www.w3.org/1999/xlink">
<g id="graph0" class="graph" transform="scale(1 1) rotate(0) translate(4 187)">
<polygon fill="white" stroke="none" points="-4,4 -4,-187 854,-187 854,4 -4,4"/>
<!-- 1374390698816 -->
<g id="node1" class="node">
<title>1374390698816</title>
<path fill="lightblue" stroke="lightblue" d="M83.75,-0.5C83.75,-0.5 140.25,-0.5 140.25,-0.5 146.25,-0.5 152.25,-6.5 152.25,-12.5 152.25,-12.5 152.25,-24.5 152.25,-24.5 152.25,-30.5 146.25,-36.5 140.25,-36.5 140.25,-36.5 83.75,-36.5 83.75,-36.5 77.75,-36.5 71.75,-30.5 71.75,-24.5 71.75,-24.5 71.75,-12.5 71.75,-12.5 71.75,-6.5 77.75,-0.5 83.75,-0.5"/>
<text text-anchor="middle" x="112" y="-13.45" font-family="Times,serif" font-size="14.00">command.c</text>
</g>
<!-- 1374390699072 -->
<g id="node2" class="node">
<title>1374390699072</title>
<path fill="lightblue" stroke="lightblue" d="M181,-73.5C181,-73.5 211,-73.5 211,-73.5 217,-73.5 223,-79.5 223,-85.5 223,-85.5 223,-97.5 223,-97.5 223,-103.5 217,-109.5 211,-109.5 211,-109.5 181,-109.5 181,-109.5 175,-109.5 169,-103.5 169,-97.5 169,-97.5 169,-85.5 169,-85.5 169,-79.5 175,-73.5 181,-73.5"/>
<text text-anchor="middle" x="195.88" y="-86.45" font-family="Times,serif" font-size="14.00">kbd.o</text>
</g>
<!-- 1374390699200 -->
<g id="node3" class="node">
<title>1374390699200</title>
<path fill="lightblue" stroke="lightblue" d="M12,-0.5C12,-0.5 42,-0.5 42,-0.5 48,-0.5 54,-6.5 54,-12.5 54,-12.5 54,-24.5 54,-24.5 54,-30.5 48,-36.5 42,-36.5 42,-36.5 12,-36.5 12,-36.5 6,-36.5 0,-30.5 0,-24.5 0,-24.5 0,-12.5 0,-12.5 0,-6.5 6,-0.5 12,-0.5"/>
<text text-anchor="middle" x="27" y="-13.45" font-family="Times,serif" font-size="14.00">kbd.c</text>
</g>
<!-- 1374390699072&#45;&gt;1374390699200 -->
<g id="edge1" class="edge">
<title>1374390699072&#45;&gt;1374390699200</title>
<path fill="none" stroke="black" d="M168.51,-80.09C143.57,-70.5 105.59,-55.56 64.84,-37.68"/>
<polygon fill="black" stroke="black" points="66.37,-34.53 55.81,-33.69 63.54,-40.94 66.37,-34.53"/>
</g>
<!-- 1374390698880 -->
<g id="node4" class="node">
<title>1374390698880</title>
<path fill="lightblue" stroke="lightblue" d="M426,-0.5C426,-0.5 456,-0.5 456,-0.5 462,-0.5 468,-6.5 468,-12.5 468,-12.5 468,-24.5 468,-24.5 468,-30.5 462,-36.5 456,-36.5 456,-36.5 426,-36.5 426,-36.5 420,-36.5 414,-30.5 414,-24.5 414,-24.5 414,-12.5 414,-12.5 414,-6.5 420,-0.5 426,-0.5"/>
<text text-anchor="middle" x="441" y="-13.45" font-family="Times,serif" font-size="14.00">defs.h</text>
</g>
<!-- 1374390699072&#45;&gt;1374390698880 -->
<g id="edge2" class="edge">
<title>1374390699072&#45;&gt;1374390698880</title>
<path fill="none" stroke="black" d="M223.22,-76.4C226.14,-75.15 229.11,-73.99 232,-73 302.99,-48.78 328.38,-61.12 402.92,-37.22"/>
<polygon fill="black" stroke="black" points="403.96,-40.56 412.34,-34.07 401.75,-33.92 403.96,-40.56"/>
</g>
<!-- 1374390698944 -->
<g id="node5" class="node">
<title>1374390698944</title>
<path fill="lightblue" stroke="lightblue" d="M182.38,-0.5C182.38,-0.5 239.62,-0.5 239.62,-0.5 245.62,-0.5 251.62,-6.5 251.62,-12.5 251.62,-12.5 251.62,-24.5 251.62,-24.5 251.62,-30.5 245.62,-36.5 239.62,-36.5 239.62,-36.5 182.38,-36.5 182.38,-36.5 176.38,-36.5 170.38,-30.5 170.38,-24.5 170.38,-24.5 170.38,-12.5 170.38,-12.5 170.38,-6.5 176.38,-0.5 182.38,-0.5"/>
<text text-anchor="middle" x="211" y="-13.45" font-family="Times,serif" font-size="14.00">command.h</text>
</g>
<!-- 1374390699072&#45;&gt;1374390698944 -->
<g id="edge3" class="edge">
<title>1374390699072&#45;&gt;1374390698944</title>
<path fill="none" stroke="black" d="M199.63,-73.31C201.25,-65.64 203.21,-56.39 205.03,-47.74"/>
<polygon fill="black" stroke="black" points="208.45,-48.52 207.09,-38.01 201.6,-47.07 208.45,-48.52"/>
</g>
<!-- 1374390699392 -->
<g id="node6" class="node">
<title>1374390699392</title>
<path fill="lightblue" stroke="lightblue" d="M353,-73.5C353,-73.5 383,-73.5 383,-73.5 389,-73.5 395,-79.5 395,-85.5 395,-85.5 395,-97.5 395,-97.5 395,-103.5 389,-109.5 383,-109.5 383,-109.5 353,-109.5 353,-109.5 347,-109.5 341,-103.5 341,-97.5 341,-97.5 341,-85.5 341,-85.5 341,-79.5 347,-73.5 353,-73.5"/>
<text text-anchor="middle" x="367.88" y="-86.45" font-family="Times,serif" font-size="14.00">files.o</text>
</g>
<!-- 1374390699392&#45;&gt;1374390698880 -->
<g id="edge5" class="edge">
<title>1374390699392&#45;&gt;1374390698880</title>
<path fill="none" stroke="black" d="M385.67,-73.31C394.48,-64.74 405.31,-54.21 415.04,-44.74"/>
<polygon fill="black" stroke="black" points="417.43,-47.31 422.15,-37.83 412.54,-42.29 417.43,-47.31"/>
</g>
<!-- 1374390699392&#45;&gt;1374390698944 -->
<g id="edge7" class="edge">
<title>1374390699392&#45;&gt;1374390698944</title>
<path fill="none" stroke="black" d="M340.53,-77.02C337.66,-75.65 334.77,-74.29 332,-73 309.08,-62.37 283.52,-50.99 261.81,-41.48"/>
<polygon fill="black" stroke="black" points="263.45,-38.38 252.88,-37.58 260.65,-44.79 263.45,-38.38"/>
</g>
<!-- 1374390699456 -->
<g id="node7" class="node">
<title>1374390699456</title>
<path fill="lightblue" stroke="lightblue" d="M282,-0.5C282,-0.5 312,-0.5 312,-0.5 318,-0.5 324,-6.5 324,-12.5 324,-12.5 324,-24.5 324,-24.5 324,-30.5 318,-36.5 312,-36.5 312,-36.5 282,-36.5 282,-36.5 276,-36.5 270,-30.5 270,-24.5 270,-24.5 270,-12.5 270,-12.5 270,-6.5 276,-0.5 282,-0.5"/>
<text text-anchor="middle" x="297" y="-13.45" font-family="Times,serif" font-size="14.00">files.c</text>
</g>
<!-- 1374390699392&#45;&gt;1374390699456 -->
<g id="edge4" class="edge">
<title>1374390699392&#45;&gt;1374390699456</title>
<path fill="none" stroke="black" d="M350.81,-73.31C342.18,-64.68 331.56,-54.06 322.03,-44.53"/>
<polygon fill="black" stroke="black" points="324.65,-42.2 315.1,-37.6 319.7,-47.15 324.65,-42.2"/>
</g>
<!-- 1374390699520 -->
<g id="node8" class="node">
<title>1374390699520</title>
<path fill="lightblue" stroke="lightblue" d="M579.62,-0.5C579.62,-0.5 614.38,-0.5 614.38,-0.5 620.38,-0.5 626.38,-6.5 626.38,-12.5 626.38,-12.5 626.38,-24.5 626.38,-24.5 626.38,-30.5 620.38,-36.5 614.38,-36.5 614.38,-36.5 579.62,-36.5 579.62,-36.5 573.62,-36.5 567.62,-30.5 567.62,-24.5 567.62,-24.5 567.62,-12.5 567.62,-12.5 567.62,-6.5 573.62,-0.5 579.62,-0.5"/>
<text text-anchor="middle" x="597" y="-13.45" font-family="Times,serif" font-size="14.00">buffer.h</text>
</g>
<!-- 1374390699392&#45;&gt;1374390699520 -->
<g id="edge6" class="edge">
<title>1374390699392&#45;&gt;1374390699520</title>
<path fill="none" stroke="black" d="M395.25,-76.47C398.16,-75.21 401.12,-74.02 404,-73 467.41,-50.54 489.89,-58.96 556.71,-37.41"/>
<polygon fill="black" stroke="black" points="557.56,-40.81 565.93,-34.32 555.33,-34.18 557.56,-40.81"/>
</g>
<!-- 1374390699648 -->
<g id="node9" class="node">
<title>1374390699648</title>
<path fill="lightblue" stroke="lightblue" d="M464,-146.5C464,-146.5 494,-146.5 494,-146.5 500,-146.5 506,-152.5 506,-158.5 506,-158.5 506,-170.5 506,-170.5 506,-176.5 500,-182.5 494,-182.5 494,-182.5 464,-182.5 464,-182.5 458,-182.5 452,-176.5 452,-170.5 452,-170.5 452,-158.5 452,-158.5 452,-152.5 458,-146.5 464,-146.5"/>
<text text-anchor="middle" x="478.62" y="-159.45" font-family="Times,serif" font-size="14.00">edit</text>
</g>
<!-- 1374390699648&#45;&gt;1374390699072 -->
<g id="edge9" class="edge">
<title>1374390699648&#45;&gt;1374390699072</title>
<path fill="none" stroke="black" d="M451.74,-159.78C407.49,-153.28 317.34,-138.12 233.9,-110.22"/>
<polygon fill="black" stroke="black" points="235.26,-106.99 224.66,-107.06 232.99,-113.61 235.26,-106.99"/>
</g>
<!-- 1374390699648&#45;&gt;1374390699392 -->
<g id="edge14" class="edge">
<title>1374390699648&#45;&gt;1374390699392</title>
<path fill="none" stroke="black" d="M451.85,-146.13C437.6,-137.02 419.95,-125.73 404.53,-115.86"/>
<polygon fill="black" stroke="black" points="406.84,-113.19 396.53,-110.75 403.07,-119.09 406.84,-113.19"/>
</g>
<!-- 1374390699712 -->
<g id="node10" class="node">
<title>1374390699712</title>
<path fill="lightblue" stroke="lightblue" d="M424.88,-73.5C424.88,-73.5 455.12,-73.5 455.12,-73.5 461.12,-73.5 467.12,-79.5 467.12,-85.5 467.12,-85.5 467.12,-97.5 467.12,-97.5 467.12,-103.5 461.12,-109.5 455.12,-109.5 455.12,-109.5 424.88,-109.5 424.88,-109.5 418.88,-109.5 412.88,-103.5 412.88,-97.5 412.88,-97.5 412.88,-85.5 412.88,-85.5 412.88,-79.5 418.88,-73.5 424.88,-73.5"/>
<text text-anchor="middle" x="440" y="-86.45" font-family="Times,serif" font-size="14.00">main.o</text>
</g>
<!-- 1374390699648&#45;&gt;1374390699712 -->
<g id="edge8" class="edge">
<title>1374390699648&#45;&gt;1374390699712</title>
<path fill="none" stroke="black" d="M469.56,-146.31C465.15,-138.29 459.8,-128.55 454.87,-119.57"/>
<polygon fill="black" stroke="black" points="457.96,-117.94 450.08,-110.86 451.83,-121.31 457.96,-117.94"/>
</g>
<!-- 1374390698688 -->
<g id="node11" class="node">
<title>1374390698688</title>
<path fill="lightblue" stroke="lightblue" d="M253.38,-73.5C253.38,-73.5 310.62,-73.5 310.62,-73.5 316.62,-73.5 322.62,-79.5 322.62,-85.5 322.62,-85.5 322.62,-97.5 322.62,-97.5 322.62,-103.5 316.62,-109.5 310.62,-109.5 310.62,-109.5 253.38,-109.5 253.38,-109.5 247.38,-109.5 241.38,-103.5 241.38,-97.5 241.38,-97.5 241.38,-85.5 241.38,-85.5 241.38,-79.5 247.38,-73.5 253.38,-73.5"/>
<text text-anchor="middle" x="282" y="-86.45" font-family="Times,serif" font-size="14.00">command.o</text>
</g>
<!-- 1374390699648&#45;&gt;1374390698688 -->
<g id="edge10" class="edge">
<title>1374390699648&#45;&gt;1374390698688</title>
<path fill="none" stroke="black" d="M451.61,-153.63C421.2,-142.67 371.44,-124.73 333.66,-111.12"/>
<polygon fill="black" stroke="black" points="334.87,-107.83 324.27,-107.74 332.49,-114.42 334.87,-107.83"/>
</g>
<!-- 1374390699840 -->
<g id="node12" class="node">
<title>1374390699840</title>
<path fill="lightblue" stroke="lightblue" d="M497.62,-73.5C497.62,-73.5 538.38,-73.5 538.38,-73.5 544.38,-73.5 550.38,-79.5 550.38,-85.5 550.38,-85.5 550.38,-97.5 550.38,-97.5 550.38,-103.5 544.38,-109.5 538.38,-109.5 538.38,-109.5 497.62,-109.5 497.62,-109.5 491.62,-109.5 485.62,-103.5 485.62,-97.5 485.62,-97.5 485.62,-85.5 485.62,-85.5 485.62,-79.5 491.62,-73.5 497.62,-73.5"/>
<text text-anchor="middle" x="518" y="-86.45" font-family="Times,serif" font-size="14.00">display.o</text>
</g>
<!-- 1374390699648&#45;&gt;1374390699840 -->
<g id="edge11" class="edge">
<title>1374390699648&#45;&gt;1374390699840</title>
<path fill="none" stroke="black" d="M488.44,-146.31C492.85,-138.29 498.2,-128.55 503.13,-119.57"/>
<polygon fill="black" stroke="black" points="506.17,-121.31 507.92,-110.86 500.04,-117.94 506.17,-121.31"/>
</g>
<!-- 1374390699904 -->
<g id="node13" class="node">
<title>1374390699904</title>
<path fill="lightblue" stroke="lightblue" d="M580.75,-73.5C580.75,-73.5 613.25,-73.5 613.25,-73.5 619.25,-73.5 625.25,-79.5 625.25,-85.5 625.25,-85.5 625.25,-97.5 625.25,-97.5 625.25,-103.5 619.25,-109.5 613.25,-109.5 613.25,-109.5 580.75,-109.5 580.75,-109.5 574.75,-109.5 568.75,-103.5 568.75,-97.5 568.75,-97.5 568.75,-85.5 568.75,-85.5 568.75,-79.5 574.75,-73.5 580.75,-73.5"/>
<text text-anchor="middle" x="597" y="-86.45" font-family="Times,serif" font-size="14.00">insert.o</text>
</g>
<!-- 1374390699648&#45;&gt;1374390699904 -->
<g id="edge12" class="edge">
<title>1374390699648&#45;&gt;1374390699904</title>
<path fill="none" stroke="black" d="M506.37,-147.03C521.96,-137.65 541.74,-125.75 558.84,-115.46"/>
<polygon fill="black" stroke="black" points="560.49,-118.55 567.25,-110.4 556.88,-112.56 560.49,-118.55"/>
</g>
<!-- 1374390699968 -->
<g id="node14" class="node">
<title>1374390699968</title>
<path fill="lightblue" stroke="lightblue" d="M655.5,-73.5C655.5,-73.5 692.5,-73.5 692.5,-73.5 698.5,-73.5 704.5,-79.5 704.5,-85.5 704.5,-85.5 704.5,-97.5 704.5,-97.5 704.5,-103.5 698.5,-109.5 692.5,-109.5 692.5,-109.5 655.5,-109.5 655.5,-109.5 649.5,-109.5 643.5,-103.5 643.5,-97.5 643.5,-97.5 643.5,-85.5 643.5,-85.5 643.5,-79.5 649.5,-73.5 655.5,-73.5"/>
<text text-anchor="middle" x="674" y="-86.45" font-family="Times,serif" font-size="14.00">search.o</text>
</g>
<!-- 1374390699648&#45;&gt;1374390699968 -->
<g id="edge13" class="edge">
<title>1374390699648&#45;&gt;1374390699968</title>
<path fill="none" stroke="black" d="M506.32,-149.67C509.22,-148.36 512.15,-147.11 515,-146 563.34,-127.08 580.12,-128.8 632.54,-110.28"/>
<polygon fill="black" stroke="black" points="633.51,-113.65 641.72,-106.95 631.12,-107.07 633.51,-113.65"/>
</g>
<!-- 1374390700032 -->
<g id="node15" class="node">
<title>1374390700032</title>
<path fill="lightblue" stroke="lightblue" d="M735,-73.5C735,-73.5 765,-73.5 765,-73.5 771,-73.5 777,-79.5 777,-85.5 777,-85.5 777,-97.5 777,-97.5 777,-103.5 771,-109.5 765,-109.5 765,-109.5 735,-109.5 735,-109.5 729,-109.5 723,-103.5 723,-97.5 723,-97.5 723,-85.5 723,-85.5 723,-79.5 729,-73.5 735,-73.5"/>
<text text-anchor="middle" x="749.88" y="-86.45" font-family="Times,serif" font-size="14.00">utils.o</text>
</g>
<!-- 1374390699648&#45;&gt;1374390700032 -->
<g id="edge15" class="edge">
<title>1374390699648&#45;&gt;1374390700032</title>
<path fill="none" stroke="black" d="M506.2,-149.33C509.12,-148.09 512.09,-146.95 515,-146 597.1,-119.18 626.28,-136.43 712.06,-110.11"/>
<polygon fill="black" stroke="black" points="712.9,-113.51 721.36,-107.13 710.77,-106.84 712.9,-113.51"/>
</g>
<!-- 1374390699712&#45;&gt;1374390698880 -->
<g id="edge23" class="edge">
<title>1374390699712&#45;&gt;1374390698880</title>
<path fill="none" stroke="black" d="M440.24,-73.31C440.35,-65.73 440.48,-56.6 440.6,-48.04"/>
<polygon fill="black" stroke="black" points="444.1,-48.09 440.74,-38.04 437.1,-47.99 444.1,-48.09"/>
</g>
<!-- 1374390700608 -->
<g id="node18" class="node">
<title>1374390700608</title>
<path fill="lightblue" stroke="lightblue" d="M354,-0.5C354,-0.5 384,-0.5 384,-0.5 390,-0.5 396,-6.5 396,-12.5 396,-12.5 396,-24.5 396,-24.5 396,-30.5 390,-36.5 384,-36.5 384,-36.5 354,-36.5 354,-36.5 348,-36.5 342,-30.5 342,-24.5 342,-24.5 342,-12.5 342,-12.5 342,-6.5 348,-0.5 354,-0.5"/>
<text text-anchor="middle" x="368.75" y="-13.45" font-family="Times,serif" font-size="14.00">main.c</text>
</g>
<!-- 1374390699712&#45;&gt;1374390700608 -->
<g id="edge22" class="edge">
<title>1374390699712&#45;&gt;1374390700608</title>
<path fill="none" stroke="black" d="M422.81,-73.31C414.18,-64.68 403.56,-54.06 394.03,-44.53"/>
<polygon fill="black" stroke="black" points="396.65,-42.2 387.1,-37.6 391.7,-47.15 396.65,-42.2"/>
</g>
<!-- 1374390698688&#45;&gt;1374390698816 -->
<g id="edge19" class="edge">
<title>1374390698688&#45;&gt;1374390698816</title>
<path fill="none" stroke="black" d="M241.28,-73.49C217.82,-63.69 188.11,-51.29 163.09,-40.84"/>
<polygon fill="black" stroke="black" points="164.65,-37.7 154.08,-37.07 161.96,-44.16 164.65,-37.7"/>
</g>
<!-- 1374390698688&#45;&gt;1374390698880 -->
<g id="edge20" class="edge">
<title>1374390698688&#45;&gt;1374390698880</title>
<path fill="none" stroke="black" d="M322.91,-73.22C344.59,-63.95 371.85,-52.1 403.21,-37.75"/>
<polygon fill="black" stroke="black" points="404.54,-40.99 412.16,-33.63 401.62,-34.63 404.54,-40.99"/>
</g>
<!-- 1374390698688&#45;&gt;1374390698944 -->
<g id="edge21" class="edge">
<title>1374390698688&#45;&gt;1374390698944</title>
<path fill="none" stroke="black" d="M264.81,-73.31C256.18,-64.68 245.56,-54.06 236.03,-44.53"/>
<polygon fill="black" stroke="black" points="238.65,-42.2 229.1,-37.6 233.7,-47.15 238.65,-42.2"/>
</g>
<!-- 1374390699840&#45;&gt;1374390698880 -->
<g id="edge28" class="edge">
<title>1374390699840&#45;&gt;1374390698880</title>
<path fill="none" stroke="black" d="M499.36,-73.31C489.97,-64.66 478.41,-54 468.07,-44.46"/>
<polygon fill="black" stroke="black" points="470.57,-42.01 460.85,-37.8 465.83,-47.15 470.57,-42.01"/>
</g>
<!-- 1374390699840&#45;&gt;1374390699520 -->
<g id="edge29" class="edge">
<title>1374390699840&#45;&gt;1374390699520</title>
<path fill="none" stroke="black" d="M537.12,-73.31C546.76,-64.66 558.61,-54 569.23,-44.46"/>
<polygon fill="black" stroke="black" points="571.55,-47.07 576.65,-37.79 566.88,-41.87 571.55,-47.07"/>
</g>
<!-- 1374390700416 -->
<g id="node21" class="node">
<title>1374390700416</title>
<path fill="lightblue" stroke="lightblue" d="M498,-0.5C498,-0.5 538,-0.5 538,-0.5 544,-0.5 550,-6.5 550,-12.5 550,-12.5 550,-24.5 550,-24.5 550,-30.5 544,-36.5 538,-36.5 538,-36.5 498,-36.5 498,-36.5 492,-36.5 486,-30.5 486,-24.5 486,-24.5 486,-12.5 486,-12.5 486,-6.5 492,-0.5 498,-0.5"/>
<text text-anchor="middle" x="518" y="-13.45" font-family="Times,serif" font-size="14.00">display.c</text>
</g>
<!-- 1374390699840&#45;&gt;1374390700416 -->
<g id="edge27" class="edge">
<title>1374390699840&#45;&gt;1374390700416</title>
<path fill="none" stroke="black" d="M518,-73.31C518,-65.73 518,-56.6 518,-48.04"/>
<polygon fill="black" stroke="black" points="521.5,-48.04 518,-38.04 514.5,-48.04 521.5,-48.04"/>
</g>
<!-- 1374390699904&#45;&gt;1374390698880 -->
<g id="edge17" class="edge">
<title>1374390699904&#45;&gt;1374390698880</title>
<path fill="none" stroke="black" d="M568.39,-77.26C565.23,-75.81 562.05,-74.37 559,-73 525.68,-58.01 514.88,-54.28 478.78,-37.74"/>
<polygon fill="black" stroke="black" points="480.39,-34.63 469.84,-33.62 477.46,-40.99 480.39,-34.63"/>
</g>
<!-- 1374390699904&#45;&gt;1374390699520 -->
<g id="edge18" class="edge">
<title>1374390699904&#45;&gt;1374390699520</title>
<path fill="none" stroke="black" d="M597,-73.31C597,-65.73 597,-56.6 597,-48.04"/>
<polygon fill="black" stroke="black" points="600.5,-48.04 597,-38.04 593.5,-48.04 600.5,-48.04"/>
</g>
<!-- 1374390700224 -->
<g id="node16" class="node">
<title>1374390700224</title>
<path fill="lightblue" stroke="lightblue" d="M656.12,-0.5C656.12,-0.5 687.88,-0.5 687.88,-0.5 693.88,-0.5 699.88,-6.5 699.88,-12.5 699.88,-12.5 699.88,-24.5 699.88,-24.5 699.88,-30.5 693.88,-36.5 687.88,-36.5 687.88,-36.5 656.12,-36.5 656.12,-36.5 650.12,-36.5 644.12,-30.5 644.12,-24.5 644.12,-24.5 644.12,-12.5 644.12,-12.5 644.12,-6.5 650.12,-0.5 656.12,-0.5"/>
<text text-anchor="middle" x="672" y="-13.45" font-family="Times,serif" font-size="14.00">insert.c</text>
</g>
<!-- 1374390699904&#45;&gt;1374390700224 -->
<g id="edge16" class="edge">
<title>1374390699904&#45;&gt;1374390700224</title>
<path fill="none" stroke="black" d="M615.16,-73.31C624.3,-64.66 635.56,-54 645.64,-44.46"/>
<polygon fill="black" stroke="black" points="647.8,-47.23 652.65,-37.82 642.98,-42.15 647.8,-47.23"/>
</g>
<!-- 1374390699968&#45;&gt;1374390698880 -->
<g id="edge25" class="edge">
<title>1374390699968&#45;&gt;1374390698880</title>
<path fill="none" stroke="black" d="M643.21,-76.35C640.13,-75.14 637.02,-74 634,-73 569.34,-51.65 546.73,-59.88 479.04,-37.27"/>
<polygon fill="black" stroke="black" points="480.27,-33.99 469.67,-34.03 477.98,-40.61 480.27,-33.99"/>
</g>
<!-- 1374390699968&#45;&gt;1374390699520 -->
<g id="edge26" class="edge">
<title>1374390699968&#45;&gt;1374390699520</title>
<path fill="none" stroke="black" d="M655.36,-73.31C645.97,-64.66 634.41,-54 624.07,-44.46"/>
<polygon fill="black" stroke="black" points="626.57,-42.01 616.85,-37.8 621.83,-47.15 626.57,-42.01"/>
</g>
<!-- 1374390700736 -->
<g id="node19" class="node">
<title>1374390700736</title>
<path fill="lightblue" stroke="lightblue" d="M729.88,-0.5C729.88,-0.5 766.12,-0.5 766.12,-0.5 772.12,-0.5 778.12,-6.5 778.12,-12.5 778.12,-12.5 778.12,-24.5 778.12,-24.5 778.12,-30.5 772.12,-36.5 766.12,-36.5 766.12,-36.5 729.88,-36.5 729.88,-36.5 723.88,-36.5 717.88,-30.5 717.88,-24.5 717.88,-24.5 717.88,-12.5 717.88,-12.5 717.88,-6.5 723.88,-0.5 729.88,-0.5"/>
<text text-anchor="middle" x="748" y="-13.45" font-family="Times,serif" font-size="14.00">search.c</text>
</g>
<!-- 1374390699968&#45;&gt;1374390700736 -->
<g id="edge24" class="edge">
<title>1374390699968&#45;&gt;1374390700736</title>
<path fill="none" stroke="black" d="M691.91,-73.31C700.85,-64.74 711.82,-54.21 721.69,-44.74"/>
<polygon fill="black" stroke="black" points="724.11,-47.27 728.9,-37.82 719.26,-42.22 724.11,-47.27"/>
</g>
<!-- 1374390700032&#45;&gt;1374390698880 -->
<g id="edge31" class="edge">
<title>1374390700032&#45;&gt;1374390698880</title>
<path fill="none" stroke="black" d="M722.83,-76.24C719.9,-75.02 716.92,-73.91 714,-73 615.65,-42.4 581.03,-66.9 478.93,-37.03"/>
<polygon fill="black" stroke="black" points="480.2,-33.76 469.62,-34.2 478.16,-40.46 480.2,-33.76"/>
</g>
<!-- 1374390700544 -->
<g id="node17" class="node">
<title>1374390700544</title>
<path fill="lightblue" stroke="lightblue" d="M808,-0.5C808,-0.5 838,-0.5 838,-0.5 844,-0.5 850,-6.5 850,-12.5 850,-12.5 850,-24.5 850,-24.5 850,-30.5 844,-36.5 838,-36.5 838,-36.5 808,-36.5 808,-36.5 802,-36.5 796,-30.5 796,-24.5 796,-24.5 796,-12.5 796,-12.5 796,-6.5 802,-0.5 808,-0.5"/>
<text text-anchor="middle" x="823" y="-13.45" font-family="Times,serif" font-size="14.00">utils.c</text>
</g>
<!-- 1374390700032&#45;&gt;1374390700544 -->
<g id="edge30" class="edge">
<title>1374390700032&#45;&gt;1374390700544</title>
<path fill="none" stroke="black" d="M767.67,-73.31C776.48,-64.74 787.31,-54.21 797.04,-44.74"/>
<polygon fill="black" stroke="black" points="799.43,-47.31 804.15,-37.83 794.54,-42.29 799.43,-47.31"/>
</g>
<!-- 1374390700096 -->
<g id="node20" class="node">
<title>1374390700096</title>
<path fill="lightblue" stroke="lightblue" d="M536,-146.5C536,-146.5 566,-146.5 566,-146.5 572,-146.5 578,-152.5 578,-158.5 578,-158.5 578,-170.5 578,-170.5 578,-176.5 572,-182.5 566,-182.5 566,-182.5 536,-182.5 536,-182.5 530,-182.5 524,-176.5 524,-170.5 524,-170.5 524,-158.5 524,-158.5 524,-152.5 530,-146.5 536,-146.5"/>
<text text-anchor="middle" x="550.75" y="-159.45" font-family="Times,serif" font-size="14.00">clean</text>
</g>
</g>
</svg>
